<svg xmlns="http://www.w3.org/2000/svg" xmlns:xlink="http://www.w3.org/1999/xlink" width="448.416" height="50" viewBox="0 0 448.416 50">
  <defs>
    <clipPath id="clip-path">
      <rect id="Rectangle_1" data-name="Rectangle 1" width="241" height="50" transform="translate(152 158.552)" fill="#fff" stroke="#707070" stroke-width="1"/>
    </clipPath>
  </defs>
  <g id="logo" transform="translate(-80 -34)">
    <g id="Mask_Group_1" data-name="Mask Group 1" transform="translate(-72 -124.552)" clip-path="url(#clip-path)">
      <g id="故宮" transform="translate(154.751 158.172)">
        <g id="Group_10" data-name="Group 10" transform="translate(64.103 6.758)">
          <g id="Group_8" data-name="Group 8" transform="translate(0.326)">
            <g id="Group_1" data-name="Group 1" transform="translate(0 1.572)">
              <path id="Path_1" data-name="Path 1" d="M81.632,13.355a4.218,4.218,0,0,0-.831-.876.343.343,0,0,0-.225-.09,2.591,2.591,0,0,0-1.123-.337h-.718c-.359,0-.135.4-.135.4a2.856,2.856,0,0,0,.561.674c.045,0,.09.045.135.09a3.786,3.786,0,0,0,.516.9,2.4,2.4,0,0,0,.7.494,3.308,3.308,0,0,0,.629.18c.539.135.225-.359.314-.674A1.338,1.338,0,0,0,81.632,13.355Z" transform="translate(-69.069 -10.122)" fill="#231815"/>
              <path id="Path_2" data-name="Path 2" d="M86.206,11.342c-.314-.135-.359-.359-.584-.539s-.449-.045-.674-.269a1.7,1.7,0,0,0-.719-.4c-.135,0-.449.09-.988.157A14.036,14.036,0,0,1,81,10.422h-.4a11.794,11.794,0,0,0-1.257.067,3.334,3.334,0,0,1-.718.067.57.57,0,0,0-.269.045,9.1,9.1,0,0,1-.943.112c-.763.112-1.617.247-1.617.247a1.435,1.435,0,0,0-.314.045c-.18,0-.449.045-.719.067a11.607,11.607,0,0,0-1.886.314c-.808.2-2.021.314-2.47.449-.4.09-.449.359-.449.359l-.674-.067c-.269,0-.135.18-.135.449a4.661,4.661,0,0,0,.427,1.347,17.372,17.372,0,0,1,.4,2.874c.022.808.045,2.245-.022,3.39-.067,1.168-.067,4.109-.067,4.2a6.008,6.008,0,0,0-.112.988c.045.4.022,1.212.022,1.8a5.116,5.116,0,0,0,.135,1.886c.247.763.741,1.212,1.01,1.19.269-.09.292-.718.292-.718a8.974,8.974,0,0,0,1.347.157,9.323,9.323,0,0,0,1.257-.112,8.291,8.291,0,0,0,1.347-.337c.18-.045.4-.09.584-.135.314-.045.808-.112,1.347-.157a4.447,4.447,0,0,1,.943-.067c.314-.045.674-.067.988-.112.135,0,.269-.045.359-.045.18,0,.539-.045.9-.067.853-.022,1.886-.112,2.29-.09a2.619,2.619,0,0,0,1.347-.427c.225-.135.09-.314-.382-.674a1.872,1.872,0,0,0-1.482-.112c-.494.09-1.212.157-1.751.247a.157.157,0,0,0-.09.045,3.162,3.162,0,0,1-.943.022,1.458,1.458,0,0,1,.18-.584c.135-.359.516-.876.876-1.729a7.287,7.287,0,0,1,.741-1.325,9.516,9.516,0,0,0,1.347,1.594,11.285,11.285,0,0,1,1.594,1.01.416.416,0,0,1,.225.4,3.542,3.542,0,0,0,.067.988c.045.359,0,.539-.09.629a.7.7,0,0,0-.18.449c-.045.269-.09.584.247.629.359.09.606.718.965.965.359.269.449,0,.606-.965a19.682,19.682,0,0,0,.09-2.941,6.6,6.6,0,0,1,.022-1.8c.09-.314-.067-.629.022-.943.045-.359-.112-1.123-.112-1.662-.045-.539.022-1.033-.022-1.212-.045-.225.045-.314.022-.718-.045-.4.247-.808.112-1.078a4.3,4.3,0,0,1-.022-1.527c.09-.449.067-.718.112-.853a2.114,2.114,0,0,0,.022-.718,3.025,3.025,0,0,1-.022-.763v-.584a6.486,6.486,0,0,0-.022-1.3,4.229,4.229,0,0,1,.157-1.212s-.045-.449.135-.629C86.61,11.656,86.52,11.522,86.206,11.342ZM79.784,23.2s-.337,1.168-.651,2c-.135.314-.225.539-.314.718a9.99,9.99,0,0,0-.472,1.01,4.766,4.766,0,0,0-.157.808l-.09.045-.09.045s-.359.045-.853.067c-.629.067-1.437.157-1.931.18a17.765,17.765,0,0,0-2.155.225c-.494.09-.674,0-.988.247-.314.269-.449.314-.629.2-.135-.135-.045-.225,0-.4a3.221,3.221,0,0,0,.067-.674c-.045-.359-.112-.763-.112-.763a2.525,2.525,0,0,1,.831.472,1.641,1.641,0,0,0,1.257.2l1.033-.516a5.432,5.432,0,0,0,.719-.561c.269-.314.584-.561.808-.786a11.777,11.777,0,0,1,1.123-.831c.09-.045.18-.135.269-.18a3.729,3.729,0,0,0,.674-.427,2.119,2.119,0,0,1,.629-.337.676.676,0,0,0,.359-.18.715.715,0,0,0,.135-.584.247.247,0,0,0-.135-.225,1.122,1.122,0,0,0-.9-.022c-.045,0-.09,0-.09.045-.359.18-.718.741-.943.831a.044.044,0,0,1-.045.045,13.788,13.788,0,0,0-1.751,1.033c-.045,0-.09.045-.135.045a12.471,12.471,0,0,1-1.3.786,5.175,5.175,0,0,1-1.347.606,3.817,3.817,0,0,1-.943.112c-.359,0-.359-.225-.359-.225s-.022-1.8-.045-2.38a6.407,6.407,0,0,0-.022-.808c0-.225.045-.449.045-.584a4.726,4.726,0,0,0-.067-1.212,1.336,1.336,0,0,1,.022-.516c.09-.18-.022-.247-.022-.516a2.723,2.723,0,0,0,.022-.629,4.227,4.227,0,0,1,.022-1.078c.045-.314.067-.763.067-.763s.022-.988.022-1.751a7.512,7.512,0,0,0,.112-1.8,7.874,7.874,0,0,0-.337-.988,1.112,1.112,0,0,0-.314-.4.281.281,0,0,1,.269-.225,4.077,4.077,0,0,0,1.347.112,4.777,4.777,0,0,1,1.033-.112c.269-.09,1.078-.157,1.257-.2s.045.09.269.269a1.292,1.292,0,0,1,.472.629,1.679,1.679,0,0,1,.18.494,1.091,1.091,0,0,0,.225.449,3.344,3.344,0,0,1,.516.808c.09.269.09.4-.225.584a6.657,6.657,0,0,1-.718.2c-.539.18-1.212.337-1.527.472a2.458,2.458,0,0,1-1.257.067,3.8,3.8,0,0,1-.718-.067,3.762,3.762,0,0,1-.449.09,3.5,3.5,0,0,0,.651.853,5.949,5.949,0,0,0,.921.561c.225-.045.18,0,.18,0a3.533,3.533,0,0,1,.674,1.8,8.9,8.9,0,0,1-.539,2.717c-.225.4-.225.494-.629.472-.449,0-.449-.18-.629-.045s-.314.4-.292.943c.045.539.314.359.427.539a1.073,1.073,0,0,0,.584.314c.18.045.314.135.853-.157.225-.18.9-.606,1.594-1.145a17.639,17.639,0,0,0,1.594-1.325l.359-.359c.359-.314.674-.606.965-.876.18-.225.359-.359.4-.449a1.13,1.13,0,0,0,.09-.269s.269.494.472.853a.62.62,0,0,0,.135.18,2.32,2.32,0,0,1,.561,1.257A1.9,1.9,0,0,1,79.784,23.2Zm-5.1-5.1c-.045-.09-.359-.449-.09-.494.18-.045.494-.225.808-.337a.165.165,0,0,0,.135-.045,6.406,6.406,0,0,1,.719-.2,4.4,4.4,0,0,1,.718-.337l.18.359a1.112,1.112,0,0,1,.18.269c.135.269.382.629.472.853.225.359.382.674.337.808,0,.135-.18.045-.314,0-.045-.045-.314-.09-.539-.18a3.1,3.1,0,0,1-.359-.135c-.225-.09-.4-.09-.359.045,0,.18.472.763.516,1.123,0,.359.112.763.022.943-.045.18-.449.269-.763.516-.359.269-.674.382-.763.561a1.4,1.4,0,0,1-.269.18,2.67,2.67,0,0,1-.314.135s-.18.18-.18.09a2.221,2.221,0,0,1,.472-1.055c0-.045,0-.045.045-.045.18-.269.135-.4.2-.9.09-.494.18-.718.247-.988a1.154,1.154,0,0,0-.112-.763.38.38,0,0,0-.269-.09c-.269-.045-.629,0-.629-.09Zm9.722,7.342c-.18,0-.831-.741-1.28-1.145-.449-.449-.561-.584-.561-.584a6.11,6.11,0,0,0-.741-.9c-.359-.4-.314-.539-.314-.539a5.055,5.055,0,0,0,.561-1.594c.112-.763.292-.853.292-1.257a.712.712,0,0,0-.2-.584,6.5,6.5,0,0,0-1.055-.606,2.489,2.489,0,0,0-.584-.225,1.256,1.256,0,0,0-.269-.045s-.09.045,0,.314a6.622,6.622,0,0,1,.2,1.347c0,.584.067,1.212-.112,1.123a16.909,16.909,0,0,1-.943-1.841l-.135-.269a11.228,11.228,0,0,1-.516-1.078c-.18-.269-.045-.4-.157-.629-.135-.225-.359-.449-.18-.539.225-.09.449-.045.629-.112a.694.694,0,0,0,.269-.135c.269-.135.584-.337.629-.516a.946.946,0,0,0-.247-.9.9.9,0,0,0-.359-.18.875.875,0,0,0-.359.045c-.314.045-.449-.135-.629.112v.045a.539.539,0,0,1-.539.18,8.886,8.886,0,0,1-.382-.9c-.09-.225-.18-.449-.225-.584a3.145,3.145,0,0,0-.516-1.033s-.269-.225.09-.359a2.7,2.7,0,0,1,.674-.2,7.068,7.068,0,0,1,.943-.2c.18-.045.314-.09.449-.135.18,0,.359-.045.539-.045.494-.09.988-.112,1.257-.2h.045a7.773,7.773,0,0,1,.853-.067,8.817,8.817,0,0,1,1.168-.022c.449,0,.494.135.9.292.4.09.494.045.539.4.09.359.067.988.2,1.437a4.517,4.517,0,0,1,.157,1.123c.045.4-.022.943.022,1.527s.135,2.694.067,3.525c-.067.853-.045,2.515-.067,3.39.022.9-.157.853-.112,1.437.045.539.045.584.067.763C84.454,25.218,84.544,25.443,84.409,25.443Z" transform="translate(-69.108 -10.13)" fill="#231815"/>
            </g>
            <g id="Group_2" data-name="Group 2" transform="translate(22.599 3.48)">
              <path id="Path_3" data-name="Path 3" d="M96.782,18.811a5.044,5.044,0,0,0,1.437.561,2.459,2.459,0,0,0,.606-.09.638.638,0,0,0,.269-.09c.427-.09,1.257-.157,1.482-.2a5.389,5.389,0,0,0,.853-.225,2.074,2.074,0,0,1,.494-.09,7.12,7.12,0,0,0,.741-.09c.606-.09,2.38-.606,2.784-.651.427-.045.427-.045.606-.314.135-.314.045-.606-.427-1.123-.516-.561-1.033-.18-1.347-.135a11.516,11.516,0,0,1-2,.651c-.225-.045-.09-.314-.045-.651a7.655,7.655,0,0,0,.09-1.212c.045-.516.09-1.257.135-1.729.045-.427-.337-.651-.472-.606a.927.927,0,0,1-.516-.045c-.09,0-.18-.09-.427-.135a.485.485,0,0,1-.427-.225c-.18-.18-.314-.382-.606-.382a1.267,1.267,0,0,0-.741.427.893.893,0,0,1-.516.269h-.135c-.225.045-.045.225-.045.225a.775.775,0,0,1,.18.135c.18.18.561.472.7.606a2.393,2.393,0,0,1,.786,1.3c.09.472.516,1.819.516,1.819a.453.453,0,0,0,.09.225c.135.135,0,.337-.382.382a7.64,7.64,0,0,1-.876.135,6.611,6.611,0,0,0-.831.09,4.034,4.034,0,0,0-.786.18,4.049,4.049,0,0,1-1.437.135c-.382-.045-.225.269-.225.472C96.355,18.632,96.468,18.632,96.782,18.811Z" transform="translate(-91.596 -12.03)" fill="#231815"/>
              <path id="Path_4" data-name="Path 4" d="M111.6,25.942a9.172,9.172,0,0,0-1.168-1.168,1.631,1.631,0,0,0-1.392-.427,9.044,9.044,0,0,1-1.123.337c-.427.045-1.3.225-1.774.225-.427.045-1.864.225-2.043.269-.135.045-.651.269-.651.135-.045-.135.135-.427.427-.741.337-.314.427-.561.786-1.527a3.122,3.122,0,0,0,.18-2.425,1.21,1.21,0,0,0-1.168-.786,5.859,5.859,0,0,1-1.257,0c-.269,0,.09.382.09.382s.7.831.7,1.078c0,.18-.135.786-.18,1.392a9.579,9.579,0,0,1-.741,2.56c-.18.314-.135.314-.965.516a24.888,24.888,0,0,1-2.47.427,5.472,5.472,0,0,1-.786.045c-.606,0-3.121.382-3.772.472-.651.135-2.38.427-2.6.427-.18,0,0,.831.561,1.078a3.906,3.906,0,0,0,2.47.18c.786-.18,2.223-.472,4.131-.921.045,0,.045-.045.09-.045a28.956,28.956,0,0,1,4.558-.651c1.168-.09,4.244-.269,5.3-.269a4.2,4.2,0,0,1,1.819.382c.225.09.382-.09.786-.225C111.822,26.413,111.777,26.144,111.6,25.942Z" transform="translate(-91.615 -11.998)" fill="#231815"/>
              <path id="Path_5" data-name="Path 5" d="M98.977,21.2c-.045-.045-.09-.135-.135-.18-.135-.225-.18-.516-.314-.606-.18-.18-.382.135-.382.135a4.869,4.869,0,0,0-.225,1.078,9.958,9.958,0,0,0-.225,2.178,2.024,2.024,0,0,0,1.168,1.482,1.446,1.446,0,0,0,.427.18c.18,0,.741.225.741,0a1.9,1.9,0,0,0-.382-1.212,4.118,4.118,0,0,1-.561-1.819C99.066,21.988,99.2,21.471,98.977,21.2Z" transform="translate(-91.59 -11.996)" fill="#231815"/>
            </g>
            <g id="Group_3" data-name="Group 3" transform="translate(48.373 0.696)">
              <path id="Path_6" data-name="Path 6" d="M124.223,27.37c.18-.494.494-1.8.674-2.335,0-.09.045-.135.045-.18.09-.314.225-.584,0-.718,0-.045-.045-.045-.045-.09-.225-.18-.539-.584-.9-.943a.631.631,0,0,0-.943-.045c-.09.135-.135.4-.269.629a.616.616,0,0,1-.584.269,3.068,3.068,0,0,0-.584.18h-.045a2.034,2.034,0,0,1,.045-.359,3.878,3.878,0,0,1,.045-.674c.09-.629.314-3.256.314-3.256a1.2,1.2,0,0,1,.09-.449c.09-.18.674-.135,1.033-.225a3.9,3.9,0,0,0,1.347-.314c.4-.314.269-.853-.135-1.257-.359-.4-1.078-.225-1.392-.135-.269.045-.629.494-.763.494s0-.225.045-.494c.045-.314.09-2.021.225-2.852a6.757,6.757,0,0,0,.045-2.111c-.045-.314.135-.718.09-.853a3.659,3.659,0,0,0-.9-.359h-.045c-.314-.09-.269-.18-.494-.18a8.992,8.992,0,0,0-1.257-.135c-.4.045-.359.225-.359.225l.225.4a1.351,1.351,0,0,0,.449.494c.359.314.449,2.021.539,3.031.045,1.033.09,2.941.045,3.211,0,.269-1.572.718-2.021.853a2.665,2.665,0,0,1-1.123-.09c-.225,0-.269.225-.225.449s.359.18.359.18a2.345,2.345,0,0,1,.269.539,1.556,1.556,0,0,0,1.033.853c.449.045.314,0,.449-.135a1.21,1.21,0,0,1,.359-.314c.18-.135.584-.449.763-.4s.18.674.135,1.347-.269,2.807-.269,2.807l-.18.18a5.2,5.2,0,0,1-.718.494c-.135.09-.494-.18-.718-.359a10.744,10.744,0,0,0-1.482-.718.472.472,0,0,0-.045.539,13.554,13.554,0,0,1,1.033,1.392,15.373,15.373,0,0,1,.943,3.39,1.311,1.311,0,0,0,.269.763c.269.314.359,1.033.584,1.123.269.045.18-.045.18-.314a4.764,4.764,0,0,1,.135-.808,4.991,4.991,0,0,1,.584-.18,1.276,1.276,0,0,0,.539-.18,4.735,4.735,0,0,0,.494-.314,10.972,10.972,0,0,1,1.751-.314.816.816,0,0,0,.449-.269s.045-.135-.18-.359S124,27.909,124.223,27.37Zm-1.28-.4a5.2,5.2,0,0,1-.045.943s-.808.539-1.257.763a.165.165,0,0,0-.135.045,6.889,6.889,0,0,1-.943.314s0,.045-.135-.225a5.776,5.776,0,0,1-.314-1.886,4.941,4.941,0,0,0-.09-1.078s1.168-.4,1.527-.494h.09c.314-.09.674,0,.943-.135.225-.135.539-.314.629-.18S122.9,26.247,122.944,26.966Z" transform="translate(-117.283 -9.251)" fill="#231815"/>
              <path id="Path_7" data-name="Path 7" d="M126.032,19.586a2.69,2.69,0,0,0,.763-1.033s.4.18.763.359a3.275,3.275,0,0,0,1.168.4,4.423,4.423,0,0,0,.763-.09c.225-.045.449-.09.808-.135.674-.135,1.3-.314,1.976-.4.718-.135.9-.09,1.212-.4s.09-.674-.269-.988a8.634,8.634,0,0,1-.763-.584c-.314-.269-.494-.045-.674.18a3.243,3.243,0,0,1-1.078.808c-.27.09-.359.09-.629.18-.18.045-.4.09-.584.135a1.851,1.851,0,0,0-.4.09,1.859,1.859,0,0,1-.629.09c-.314,0-1.482.09-1.482.09s.045-.09.269-.584a24.513,24.513,0,0,0,1.078-2.425,19.313,19.313,0,0,0,.718-2.694,2.355,2.355,0,0,0-1.123-2.515,4.185,4.185,0,0,0-1.931-.808,3.026,3.026,0,0,0,.539,1.3,4.1,4.1,0,0,1,.584,1.392,3.766,3.766,0,0,1,0,.718c0,.269-.09.9-.225,2.155-.045.269-.314,1.437-.4,1.886s-.225.9-.359,1.482a7.966,7.966,0,0,1-.584,1.392,3.921,3.921,0,0,0-.225.584A3.31,3.31,0,0,1,126.032,19.586Z" transform="translate(-117.25 -9.258)" fill="#231815"/>
              <path id="Path_8" data-name="Path 8" d="M138.338,28.546a12.322,12.322,0,0,1-4.648-1.527,14.684,14.684,0,0,1-3.974-2.717,9.377,9.377,0,0,0,.584-3.256,1.286,1.286,0,0,0-.808-.9,2.191,2.191,0,0,0-.314-.135,1.382,1.382,0,0,0-1.078.09s0,.18.314.359.314.4.359,1.033a7.483,7.483,0,0,1-.135,1.751,10.2,10.2,0,0,1-1.257-1.392c-.09-.18-.225-.359-.763-.449-.539-.135-.9-.269-1.212-.135-.269.135,0,.18,0,.18s.4.359.9.808c.449.449,2.111,2.47,2.111,2.47A7.86,7.86,0,0,1,126.8,27.85a4.12,4.12,0,0,1-1.931,1.527.492.492,0,0,0-.18.09s0,.135.18.135c.045.045.09.045.18.045a6.414,6.414,0,0,0,2.155-1.168,9.921,9.921,0,0,0,2.021-2.649,1.269,1.269,0,0,1,.269.225l.449.449a39.686,39.686,0,0,0,3.076,3.076,2.956,2.956,0,0,0,2.807.449,8.047,8.047,0,0,0,2.739-1.168C138.832,28.546,138.338,28.546,138.338,28.546Z" transform="translate(-117.253 -9.214)" fill="#231815"/>
            </g>
            <g id="Group_4" data-name="Group 4" transform="translate(74.104 1.227)">
              <path id="Path_9" data-name="Path 9" d="M158.122,23.909c-.314-.292-.651-.337-1.01-.629s-.674-.561-1.055-.382a.532.532,0,0,0-.247.561s-1.437.292-2.56.561c-.561.135-1.347.247-2.043.337-.7.045-1.3.067-1.617.067-.606,0-.651.269-.471.359.18.045.269.292.741.472a2.633,2.633,0,0,0,1.325.292,2.341,2.341,0,0,0,.7-.135,29.625,29.625,0,0,1,3.839-.539,2.725,2.725,0,0,1-.067.876c-.112.786-.314,2.672-.314,2.672s-1.212.247-1.819.292c-.314.045-1.437.247-2.4.427-.876.112-1.617.247-1.617.247a5.51,5.51,0,0,0-.135-.561c-.09-.516-.471-2.133-.651-2.829a1.984,1.984,0,0,0-1.123-1.5c-.651-.292-1.28-.494-1.37-.584-.135-.045-.135.314-.135.314a7.444,7.444,0,0,1,.808,1.168,15.018,15.018,0,0,1,1.01,2.649,10.762,10.762,0,0,1,.471,1.908c.09.7.9,1.639,1.078,1.415.225-.225.112-.853.112-.876a2.775,2.775,0,0,0,.741-.135c.18,0,.471-.045.786-.067,1.257-.157,3.278-.359,3.974-.4a4.36,4.36,0,0,0,1.953-.516c.337-.225-.225-.7-.225-.7s-.135-.09.112-.876a20.364,20.364,0,0,1,1.078-2.852C158.211,24.6,158.481,24.245,158.122,23.909Z" transform="translate(-142.897 -9.733)" fill="#231815"/>
              <path id="Path_10" data-name="Path 10" d="M144.708,14.965a4.616,4.616,0,0,0-1.459-1.235c-.135.135-.045.427.112,1.01a16.576,16.576,0,0,1,.045,3.323c.045.516-.494,1.482-.494,1.8-.045.314.719,1.168,1.033,1.3.269.09.651-.18.741-.629.045-.516.067-1.055.18-2.178a12.371,12.371,0,0,0,.18-2.762A1.122,1.122,0,0,0,144.708,14.965Z" transform="translate(-142.91 -9.77)" fill="#231815"/>
              <path id="Path_11" data-name="Path 11" d="M160.188,13.791a4.108,4.108,0,0,0-1.661-.674c-.135,0-.292.269-.472.4a11.529,11.529,0,0,1-2.4.292c-1.437.157-3.57.359-3.57.359a.139.139,0,0,1-.18-.09,3.678,3.678,0,0,1-.067-.965,1.478,1.478,0,0,1,.112-.831c.09-.359.516-.629.292-1.145s-.359-.786-.718-.853c-.045,0-.045,0-.045-.045a4.781,4.781,0,0,0-.516-.045.988.988,0,0,0-1.347-.247c-.292.314-.876-.157-.921.067a2.415,2.415,0,0,0,.112.921,1.121,1.121,0,0,0,.269.427c.18.135.7.2.831.516a10.354,10.354,0,0,1,.471,2.178c.045.472-.337.359-.741.449-.427.045-1.819.337-2.178.337-.314.045-.965-.112-1.392-.112-.359,0-.157.516.135.741.314.247.9.943,1.28.808a15.912,15.912,0,0,1,1.819-.516c1.033-.314,1.617-.427,1.617-.427a.756.756,0,0,0,.135.382c.09.18.18,0,.337-.135l.045-.045c.225-.18.045-.135.292-.225a3.011,3.011,0,0,1,1.033-.359,14.781,14.781,0,0,1,2.313-.045c.966.022,3.278-.09,3.278-.09a5.065,5.065,0,0,1-.2,1.145,2.286,2.286,0,0,1-.9,1.325s0,.135.18.09c.18,0,.18-.18,1.033-.494a5.539,5.539,0,0,0,2.29-1.392.835.835,0,0,0,.292-.494v-.135A1.591,1.591,0,0,0,160.188,13.791Z" transform="translate(-142.897 -9.786)" fill="#231815"/>
              <path id="Path_12" data-name="Path 12" d="M151.268,21.465c-.359.045-.741.135-.831.067a1.445,1.445,0,0,1-.225-.741c0-.314-.022-1.3-.022-1.662a1.023,1.023,0,0,0-.539-1.033c-.629-.472-1.886-.876-2.066-.718-.18.18,0,.427,0,.427.427.045.584.516.943,1.123a15.594,15.594,0,0,1,.7,3.166,3.827,3.827,0,0,0,.718,1.392c.135.09.225-.18.247-.449,0-.269.247-.314.786-.4a1.588,1.588,0,0,1,.269-.045c.7-.135,1.953-.337,2.223-.337.314.045.449.247.606.292.135.045.606.045.7-.225.045-.225,0-.4.067-1.01a11.855,11.855,0,0,1,.067-1.482,13.022,13.022,0,0,1,.225-2.178c.157-.516-.269-.921-.674-1.168a2.468,2.468,0,0,0-1.751.022,7.416,7.416,0,0,1-1.347.494,6.735,6.735,0,0,0-.876.314c-.269.09-.7.449-.516.449.225-.045.651.292,1.1.382h.269A9.2,9.2,0,0,0,153,18.03c.427-.09.314.135.359.965.067.831.067,2.043.067,2.043s-.876.225-1.347.292A7.527,7.527,0,0,0,151.268,21.465Z" transform="translate(-142.891 -9.759)" fill="#231815"/>
            </g>
            <g id="Group_5" data-name="Group 5" transform="translate(98.262)">
              <path id="Path_13" data-name="Path 13" d="M180.659,11.768a3.192,3.192,0,0,1,.584.539c.18.135.359.269.494.359.359.225.539-.045.539-.314a10.137,10.137,0,0,1,0-1.168.559.559,0,0,0-.449-.629c-.269-.09-.18.045-.584-.09a.044.044,0,0,1-.045-.045c-.449-.135-.808-.09-.943.09a.858.858,0,0,0,0,.494A1.349,1.349,0,0,0,180.659,11.768Z" transform="translate(-166.915 -8.557)" fill="#231815"/>
              <path id="Path_14" data-name="Path 14" d="M173.461,17.44c.135-.18-.18-.539-.494-.808a2.466,2.466,0,0,0-.4-.314c-.314-.225-.674,0-.943.18a1.211,1.211,0,0,1-.629.269,17.548,17.548,0,0,1,.135-1.841c-.045-.539-.18-1.841-.539-2.155a3.257,3.257,0,0,0-2.021-.4c-.135.18.269.539.269.539s-.09.135.359.988a13.028,13.028,0,0,1,.539,3.525s-1.527.629-2.111.943c-.584.359-.719.629-.629.808.09.135.763.09,1.482,0a6.954,6.954,0,0,0,1.257-.359,10.336,10.336,0,0,1,.045,1.662c-.045.988-.045,5.86.045,6.848a5.282,5.282,0,0,0,.584,2.155c.225.225.4-.4.494-1.257.135-.9-.045-2.2,0-3.345a28.28,28.28,0,0,0,.045-3.974,12,12,0,0,1,.135-2.515s.359-.135.988-.314c.314-.09.629-.18.9-.269C173.192,17.71,173.416,17.575,173.461,17.44Z" transform="translate(-166.969 -8.549)" fill="#231815"/>
              <path id="Path_15" data-name="Path 15" d="M184.845,21.744c-.494-.539-1.123-.269-1.706,0a15.159,15.159,0,0,1-1.886.4,2.367,2.367,0,0,1-.584.09.641.641,0,0,1-.135-.314c0-.225-.449-.539-.629-.584-.225-.09-.225-.225-.225-.225h.359c.135,0,.225.135.449.045s.539-.449.763-1.392c.045-.09.045-.18.09-.269a21.275,21.275,0,0,1,.718-3.076.87.87,0,0,0,0-1.033,2.332,2.332,0,0,0-1.212-.539s-.135-.314-.4-.18c-.18.045-.9.18-1.482.314-.539.135-1.033.225-1.033.225l-.09-2.021s-.135.045.18-.18a4.639,4.639,0,0,1,.943-.314c.135-.045.269-.045.359-.09a1.639,1.639,0,0,0,.629-.4,1.282,1.282,0,0,0-.808-1.123h-.18a3.092,3.092,0,0,0-1.078.314.817.817,0,0,0,0-.4,4.261,4.261,0,0,1,0-1.078,1.071,1.071,0,0,0-.763-1.168,1.607,1.607,0,0,0-1.751.18c-.135.225.18.539.584,1.033a3.376,3.376,0,0,1,.449,1.527,3.024,3.024,0,0,1,.045.449l-.045.045a4.523,4.523,0,0,0-1.257.494,4.975,4.975,0,0,1-1.661.494c-.314.09.045.4.045.4a2.227,2.227,0,0,0,.674.4,3.2,3.2,0,0,0,1.572-.09c.269-.09.494-.135.629-.18h.09a4.083,4.083,0,0,0,.09.539c.045.494.18,1.527.18,1.527s-.135.045-.359.135a13.931,13.931,0,0,1-1.437.494c-.314.045-.045.225.135.225a10.417,10.417,0,0,1,1.078.09h.225a3.3,3.3,0,0,0,.359-.09l.18,1.527s-.045.18-.135.18a2.277,2.277,0,0,0-.4.09,2.987,2.987,0,0,1-.719.269c-.135,0-.09-.539-.09-.853a.838.838,0,0,0-.539-.808,4.906,4.906,0,0,0-1.078-.629c-.224,0-.314.539,0,1.123s.943,3.39,1.168,3.974c.18.584.225.629.359.539.135-.045.18-.269.18-.269s.09-.09.718-.09h.135c.718-.045,1.931-.09,1.931-.09a6.144,6.144,0,0,1,.359.629.98.98,0,0,1,.135.225l.18.359h-.18c-.314.045-.988.135-2.021.314a2.254,2.254,0,0,0-.539.09c-1.3.269-2.986.674-3.48.808a.348.348,0,0,1-.135.045s-.674.135-.269.494a1.245,1.245,0,0,0,.4.225,4.974,4.974,0,0,0,.853.09,4.587,4.587,0,0,0,1.3-.135c.225-.045.763-.135,1.347-.269.808-.18,1.706-.359,2.2-.449.135-.045.269-.045.359-.09.494-.09.539-.09.539-.09.18,1.482.225,5.187.225,5.187a6.723,6.723,0,0,0-.763.135,2.26,2.26,0,0,0-.584.18c-.269.135.09.718.539.988l.045.045c.359.314.359,1.347.4,1.437.09.09.584.225.629.314.067.045.112-.022.4-.494a9.588,9.588,0,0,0,.584-3.795,36.455,36.455,0,0,0-.269-3.974c0-.18.225-.225.539-.225h3.39c.584.045.808,0,1.033-.18C185.923,23.091,185.339,22.283,184.845,21.744ZM177.1,20.622s-.314.09-.674.18a2.565,2.565,0,0,0-.674.269,5.868,5.868,0,0,0,.045-1.392,2.212,2.212,0,0,1-.045-.718,6.1,6.1,0,0,0,.674-.045,1.233,1.233,0,0,0,.584-.09c.09-.045,0,.629.045.9A3.4,3.4,0,0,1,177.1,20.622Zm1.931-.314h-.045c-.539.09-.988.135-.988.135s-.18-1.662,0-1.8c.18-.09.584-.135.988-.269a.951.951,0,0,0,.314-.135c.18-.135-.135-.314-.314-.494-.045-.045-.09-.09-.135-.09-.135-.18-.269-.135-.539-.09s-.494.18-.449.135a13.682,13.682,0,0,1,.09-1.437s.539-.18,1.033-.314a2.317,2.317,0,0,1,.494-.09.84.84,0,0,1,.629.09,6.108,6.108,0,0,0-.135,1.212c-.045.584.09,2.694-.045,2.986A8.367,8.367,0,0,1,179.03,20.307Z" transform="translate(-166.947 -8.564)" fill="#231815"/>
              <path id="Path_16" data-name="Path 16" d="M176.908,25.516a3.412,3.412,0,0,1-.494-.18,5.863,5.863,0,0,0-.988-.225c-.359-.045-.225.269-.225.269s.314.718.539,1.123a4.917,4.917,0,0,0,.674.808c.225.18.449.359.584.449.314.135.449-.045.539-.269a2.114,2.114,0,0,0,.045-1.078A1.094,1.094,0,0,0,176.908,25.516Z" transform="translate(-166.936 -8.497)" fill="#231815"/>
            </g>
            <g id="Group_6" data-name="Group 6" transform="translate(123.556 0.876)">
              <path id="Path_17" data-name="Path 17" d="M199.92,17.632c.224-.269,0-.494-.18-.718,0-.045-.045-.045-.045-.09a3.009,3.009,0,0,0-.966-.741c-.269-.045-.269.314-.539.494-.225.135-.09-.921-.045-1.908a27.7,27.7,0,0,0,.135-3.143,1.2,1.2,0,0,0-.786-1.19c-.539-.359-.876-.494-1.01-.584-.135-.045-.876-.269-1.1-.314-.269,0,.225.921.359,1.37s.584.718.629,1.28c.09.539.135,3.188.225,4.244s-.09,1.19-.09,1.19a3.234,3.234,0,0,1-.359.135c-.269.135-1.19.741-1.19.741a2.689,2.689,0,0,1,.045-.831,2.418,2.418,0,0,1,.584-1.28,1.182,1.182,0,0,0-.449-1.19,2.936,2.936,0,0,1-.921-.584c-.314-.225-1.055-.584-1.145-.4a1.088,1.088,0,0,0,0,.4,8.023,8.023,0,0,0,.449.965,2.6,2.6,0,0,1,.314,1.819,4.549,4.549,0,0,1-.674,1.639c-.18.4,0,1.01.225,1.1.18.09.674.494,1.1.18a12.921,12.921,0,0,1,1.549-1.19,1.24,1.24,0,0,1,.584-.225c.045.225.135,2.784.135,2.784a5.64,5.64,0,0,1-.763.786c-.494.4-1.729,1.639-2.2,2.155a1.126,1.126,0,0,1-1.235.314c-.225-.135-.494,0-.359.449a2.148,2.148,0,0,0,1.37,1.145c.4,0,.741-.359,1.459-1.459a16.325,16.325,0,0,1,1.729-2.133s0,.494.045,1.235c.045.718,0,2.133-.045,2.829,0,.674-.135,1.864-.135,1.864a2.748,2.748,0,0,0-.741.09c-.18.135,0,.584.225.876a13.477,13.477,0,0,1,.876,1.37c.045.18.224.135.4,0,.18-.18.18-.584.359-.921a1.554,1.554,0,0,0,.18-1.145c-.135-.314,0-.539-.045-1.594-.09-1.055-.18-6.242-.18-6.242l.269-.629-.269.045a18.526,18.526,0,0,1,.225-2.335c.09-.4.269-.225.674-.314a8.83,8.83,0,0,0,1.01-.09C199.785,17.767,199.875,17.722,199.92,17.632Z" transform="translate(-192.16 -9.436)" fill="#231815"/>
              <path id="Path_18" data-name="Path 18" d="M211.252,18.03a4.29,4.29,0,0,0-.718-.786,1.074,1.074,0,0,0-1.1,0c-.359.135-.4.045-1.01.09-.629.09-2.694.045-3.188.135-.539.045-1.235.135-1.729.225a2.3,2.3,0,0,1-1.145-.225c.18-.269,1.415-2.649,1.684-3.323a8.263,8.263,0,0,0,.269-1.5.828.828,0,0,0-.359-.921c-.225-.18-.135-.18-.359-.269a6.7,6.7,0,0,1-.921-.4,1.537,1.537,0,0,0-1.1-.18c-.18.045.135.269.135.269a3.33,3.33,0,0,1,.449.831c.269.494-.135,1.864-.4,2.829-.225.921-1.28,3.413-1.549,4.2a8.942,8.942,0,0,1-.539,1.145c-.225.359-.359.584-.359.584s.09.09.359-.135a11.286,11.286,0,0,0,1.145-1.1A18.484,18.484,0,0,0,202,17.94a2.028,2.028,0,0,0,.4.494c.18.225.629.629.831.921.18.225-.359,1.774-1.325,3.75a33.753,33.753,0,0,1-1.729,3.278c-.045.09-.359.314-.045.269.359,0,.876-.718,1.28-1.325.4-.539,1.639-2.38,2.245-3.188a13.1,13.1,0,0,0,1.145-2.335c.135-.269-.314-.718-.314-.718s-.135-.09.045-.18a6.554,6.554,0,0,1,1.145-.18s0,.18.09,1.01a8.123,8.123,0,0,1-.965,3.054,30.52,30.52,0,0,1-1.5,2.964c-.4.584-1.055,1.819-1.235,2a1.131,1.131,0,0,0-.359.494s.045.045.831-.4,1.819-1.864,2.964-3.795c1.145-1.953,1.459-3.009,1.415-3.884-.045-.831-1.01-1.415-1.01-1.415a8.785,8.785,0,0,1,1.415-.09c.965,0,2.133-.09,2.133-.09s.09-.09.135.494a13.834,13.834,0,0,1-.629,3.458,17.972,17.972,0,0,1-1.28,2.874c-.269.449-.629,1.235-1.01,1.235-.314,0-.539-.225-.786-.225-.269,0-.09.449.045.674.18.225.09.876.135,1.235s-.045.494.584.314c.674-.18,1.594-1.415,2.56-3.188,1.01-1.774,2.043-5.928,2.29-6.579S211.387,18.165,211.252,18.03Z" transform="translate(-192.131 -9.431)" fill="#231815"/>
            </g>
            <g id="Group_7" data-name="Group 7" transform="translate(149.147 1.365)">
              <path id="Path_19" data-name="Path 19" d="M229.037,17.354a1.858,1.858,0,0,1-.561.269c-.449.135-.965.269-1.055.314-.225.09-.831-.18-1.19-.09s.045.606.045.606c.225,0,.472.449.606.7.135.314.472.18.561-.09.135-.314.472-.359.831-.561.045-.045.09-.045.18-.09a6.081,6.081,0,0,1,.966-.225c.4-.09.965-.359,1.145-.225s.314-.606.18-.741a2.393,2.393,0,0,0-1.1-.314C229.4,16.905,229.262,17.22,229.037,17.354Z" transform="translate(-217.612 -9.896)" fill="#231815"/>
              <path id="Path_20" data-name="Path 20" d="M227.331,14.666a5.392,5.392,0,0,1-1.325-.045c.269.472.472,1.01.921,1.055a5.555,5.555,0,0,0,1.527-.472c.225-.09.472-.18.7-.269a23.547,23.547,0,0,1,3.143-.516,6.442,6.442,0,0,1-.135,1.1c-.135.651-.4.831-.314.831a3.991,3.991,0,0,0,1.751-.831c.7-.651,1.01-.876.921-1.325-.045-.472-.471-.359-.651-.449-.225-.045-.4-.269-.7-.472-.359-.18-.831-.4-.921-.135a1.065,1.065,0,0,1-.427.472,12.909,12.909,0,0,0-2.9.606s-.045-.831,0-1.8a5.046,5.046,0,0,1,.269-1.482c.045-.359-.314-.449-.741-.606a2.191,2.191,0,0,1-.314-.135c-.561-.269-.561-.09-.561-.09a.915.915,0,0,0-.494-.09,2.354,2.354,0,0,1-.786-.09c-.225-.045-.09.269.18.561.269.269.09.561.4.786a.928.928,0,0,1,.4.516c.09.314.516,2.537.516,2.537A.782.782,0,0,1,227.331,14.666Z" transform="translate(-217.612 -9.924)" fill="#231815"/>
              <path id="Path_21" data-name="Path 21" d="M223.614,17.567a.776.776,0,0,0,.09.314,1.382,1.382,0,0,0,.18.4,9.056,9.056,0,0,0,.876,1.01s.09-.045.269-.4a2.65,2.65,0,0,0,.359-1.01c.045-.472.045-1.01.09-1.931a1.324,1.324,0,0,0-.741-1.37,1.094,1.094,0,0,0-.651-.269s0,.135.09.831a5.676,5.676,0,0,1-.09,1.751c-.045.472-.269.606-.359.651C223.614,17.612,223.614,17.567,223.614,17.567Z" transform="translate(-217.622 -9.906)" fill="#231815"/>
              <path id="Path_22" data-name="Path 22" d="M239.469,26.416a1.831,1.831,0,0,0-.314-1.055s-.135.359-.4.921a2.908,2.908,0,0,1-2.313,1.886,18.16,18.16,0,0,1-6.13.269c-.516-.18-.606-.606-.606-1.28a21.7,21.7,0,0,1,1.28-3.368c.225-.516-.135-1.19-.449-1.235a8.767,8.767,0,0,1-1.1-.4,3.664,3.664,0,0,1,.045-.449.772.772,0,0,0-.18-.651s-.09-.09.225-.225c.314-.09,1.19-.449,1.437-.516.225-.09.269.135.269.269s.4-.225.561-.4c.18-.18-.135-.516-.494-.786a.782.782,0,0,0-1.055.045,6,6,0,0,1-1.751.786l-.045.045c-.561.225-2.492,1.1-2.852,1.28a4.635,4.635,0,0,1-1.751-.135c-.4-.045,0,.4,0,.516a3.88,3.88,0,0,0,.449.741,1.111,1.111,0,0,0,1.01.449,1.814,1.814,0,0,1,.651-.516c.472-.269,2.155-1.19,2.492-1.347h.045a2.861,2.861,0,0,1-.045.606,13.866,13.866,0,0,1-2.2,3.413,17.907,17.907,0,0,1-2.582,2.762,10.278,10.278,0,0,1-1.01.741s.09.269.516-.045a1.4,1.4,0,0,0,.472-.314c.516-.4,1.437-1.19,2.672-2.245a15.087,15.087,0,0,0,2.111-2.358,11.016,11.016,0,0,0,.651-1.01s.09.18.224.472c.135.359,0,.831-.269,2.29a4.472,4.472,0,0,0,.18,3.121c.449,1.01,5.029,1.37,7.005,1.235,2.021-.135,2.9-1.1,3.076-1.482A3.5,3.5,0,0,0,239.469,26.416Z" transform="translate(-217.626 -9.886)" fill="#231815"/>
              <path id="Path_23" data-name="Path 23" d="M223.369,21.355a1.2,1.2,0,0,0,.359-.516,4.555,4.555,0,0,0,0-1.572.27.27,0,0,1-.045-.18,11.763,11.763,0,0,0-1.145-3.143c-.225-.269-.921-1.1-.921-1.1a22.941,22.941,0,0,0,1.931-3.121c.225-.4.045-.449-.314-.651-.314-.225-.449-.359-.7-.561-.269-.269-.831-.09-1.19.045-.359.09-.427.561-.427.561s-.045.18-.651.359c-.651.18-1.19.269-1.28.314-.09,0-.4.09-.472.225-.09.135,0,.449,0,.449a10.444,10.444,0,0,0,1.1.786c.225.09.18.045.516-.314.359-.359.4-.314,1.055-.606.651-.314.18.359.269.472a12.7,12.7,0,0,1-.741,1.976,2.912,2.912,0,0,0-.27.786c-.09.359.314.449.314.449a3.451,3.451,0,0,0,.314-.269c.135-.18.269,0,.606.4a6.08,6.08,0,0,1,.4,2.4c.09.561-.314.472-.7.4-.4-.09-1.437-.4-1.437-.4v-.472c0-.359,0-1.662-.045-2.447a1.139,1.139,0,0,0-.449-1.1,11.884,11.884,0,0,0-1.661-1.055s-.314.135-.045.741a12.33,12.33,0,0,1,.921,3.368,41.977,41.977,0,0,1,.269,6.489c0,1.437-.225,4.693-.225,5.3s.516,1.415.831,1.325.471-.516.471-1.055c.045-.472,0-1.841.045-3.548.045-1.662-.135-6.489-.135-6.489s-.045-.314.18-.359a.64.64,0,0,1,.561.18c.225.135.741.741,1.145,1.055S222.942,21.759,223.369,21.355Z" transform="translate(-217.646 -9.922)" fill="#231815"/>
            </g>
          </g>
          <g id="Group_9" data-name="Group 9" transform="translate(0 27.146)">
            <path id="Path_24" data-name="Path 24" d="M76.665,36.2a3.354,3.354,0,0,0-.382.045.9.9,0,0,0-.449.2.788.788,0,0,0-.247.449,5.189,5.189,0,0,0-.067.965V42.9h-.853L70.49,37.462v3.3a5.085,5.085,0,0,0,.067.943.947.947,0,0,0,.247.472,1.672,1.672,0,0,0,.4.2c.18.045.337.09.427.112v.382H68.784v-.382a4.071,4.071,0,0,0,.427-.067,1.109,1.109,0,0,0,.4-.18.8.8,0,0,0,.247-.427,4.87,4.87,0,0,0,.067-.965V37.529a1.71,1.71,0,0,0-.067-.472.824.824,0,0,0-.225-.382,1.174,1.174,0,0,0-.382-.269,2.32,2.32,0,0,0-.472-.157v-.382H71.3l3.66,4.76V37.956a3.3,3.3,0,0,0-.09-.943.947.947,0,0,0-.247-.472,1.672,1.672,0,0,0-.4-.2c-.18-.045-.314-.09-.427-.112v-.382h2.874Z" transform="translate(-68.784 -35.598)" fill="#231815"/>
            <path id="Path_25" data-name="Path 25" d="M84.737,42.851h-3.66v-.382c.18-.022.382-.045.606-.09s.359-.112.359-.2v-.09A.885.885,0,0,0,82,41.953l-.584-1.459H79.079c-.045.135-.112.292-.18.472s-.112.337-.157.494a2.96,2.96,0,0,0-.112.4.632.632,0,0,0-.022.18c0,.112.067.2.225.269a2.328,2.328,0,0,0,.763.157v.382H76.856v-.382a2.238,2.238,0,0,0,.359-.045,1.025,1.025,0,0,0,.314-.112,1.435,1.435,0,0,0,.337-.292,1.724,1.724,0,0,0,.225-.4c.359-.921.718-1.864,1.1-2.784.359-.921.763-1.953,1.212-3.076h.943c.606,1.594,1.1,2.852,1.437,3.772.359.921.651,1.684.9,2.29a1.674,1.674,0,0,0,.157.269.9.9,0,0,0,.269.225,1.3,1.3,0,0,0,.314.112,1.76,1.76,0,0,0,.314.045ZM81.212,40l-.965-2.56L79.281,40Z" transform="translate(-68.75 -35.599)" fill="#231815"/>
            <path id="Path_26" data-name="Path 26" d="M91.216,37.844h-.382a3.8,3.8,0,0,0-.472-.965c-.225-.337-.4-.516-.584-.561-.112-.022-.225-.022-.382-.045-.157,0-.269-.022-.382-.022h-.225v5.5a.717.717,0,0,0,.067.314.49.49,0,0,0,.247.225,1.694,1.694,0,0,0,.337.09c.157.022.292.045.382.067v.382H86.1v-.382a3.354,3.354,0,0,0,.382-.045,2.153,2.153,0,0,0,.337-.067.452.452,0,0,0,.247-.2.717.717,0,0,0,.067-.314V36.272h-.225a2.447,2.447,0,0,0-.382.022,1.977,1.977,0,0,0-.382.045c-.18.022-.382.2-.584.561a5.435,5.435,0,0,0-.471.965H84.75V35.845h6.489v2Z" transform="translate(-68.718 -35.598)" fill="#231815"/>
            <path id="Path_27" data-name="Path 27" d="M96.281,42.851h-3.7v-.382c.09,0,.2-.022.382-.022a.967.967,0,0,0,.337-.067.452.452,0,0,0,.247-.2.652.652,0,0,0,.067-.314V36.9a.621.621,0,0,0-.067-.292.385.385,0,0,0-.247-.2c-.067-.022-.18-.067-.337-.112a1.368,1.368,0,0,0-.382-.067v-.382h3.7v.382a3.076,3.076,0,0,0-.359.045c-.135.022-.269.045-.359.067a.452.452,0,0,0-.247.2.717.717,0,0,0-.067.314v4.962a.717.717,0,0,0,.067.314.384.384,0,0,0,.247.2,1.693,1.693,0,0,0,.337.09,2.866,2.866,0,0,0,.382.045Z" transform="translate(-68.686 -35.598)" fill="#231815"/>
            <path id="Path_28" data-name="Path 28" d="M103.715,36.61a3.466,3.466,0,0,1,.786,1.145,3.705,3.705,0,0,1,.292,1.527,4.526,4.526,0,0,1-.247,1.459,3.192,3.192,0,0,1-.718,1.19,4.077,4.077,0,0,1-1.145.808,3.708,3.708,0,0,1-1.572.292,4.128,4.128,0,0,1-1.392-.247,3.144,3.144,0,0,1-1.145-.741,3.467,3.467,0,0,1-.786-1.145,3.6,3.6,0,0,1-.292-1.5,4.148,4.148,0,0,1,.269-1.549A3.358,3.358,0,0,1,99.7,35.891a3.774,3.774,0,0,1,1.415-.269,4.259,4.259,0,0,1,1.415.247A3.471,3.471,0,0,1,103.715,36.61ZM102.5,41.617a4.11,4.11,0,0,0,.314-1.01,7.462,7.462,0,0,0,.09-1.28,6.906,6.906,0,0,0-.09-1.19,3.683,3.683,0,0,0-.292-1.033,1.956,1.956,0,0,0-.539-.718,1.317,1.317,0,0,0-.831-.269,1.423,1.423,0,0,0-1.3.853,5.319,5.319,0,0,0-.449,2.4,7.1,7.1,0,0,0,.09,1.235,3.335,3.335,0,0,0,.314,1.01,1.634,1.634,0,0,0,.539.674,1.446,1.446,0,0,0,1.617,0A1.634,1.634,0,0,0,102.5,41.617Z" transform="translate(-68.666 -35.599)" fill="#231815"/>
            <path id="Path_29" data-name="Path 29" d="M113.762,36.2a3.353,3.353,0,0,0-.382.045.9.9,0,0,0-.449.2.788.788,0,0,0-.247.449,5.191,5.191,0,0,0-.067.965V42.9h-.853l-4.176-5.434v3.3a5.085,5.085,0,0,0,.067.943.947.947,0,0,0,.247.472,1.672,1.672,0,0,0,.4.2c.18.045.337.09.427.112v.382h-2.852v-.382a4.071,4.071,0,0,0,.427-.067,1.11,1.11,0,0,0,.4-.18.8.8,0,0,0,.247-.427,4.872,4.872,0,0,0,.067-.965V37.529a1.71,1.71,0,0,0-.067-.472.824.824,0,0,0-.225-.382,1.174,1.174,0,0,0-.382-.269,2.319,2.319,0,0,0-.472-.157v-.382H108.4l3.66,4.76V37.956a3.3,3.3,0,0,0-.09-.943.947.947,0,0,0-.247-.472,1.672,1.672,0,0,0-.4-.2c-.18-.045-.314-.09-.427-.112v-.382h2.874V36.2Z" transform="translate(-68.632 -35.598)" fill="#231815"/>
            <path id="Path_30" data-name="Path 30" d="M121.812,42.851h-3.66v-.382c.18-.022.382-.045.606-.09s.359-.112.359-.2v-.09a.88.88,0,0,0-.045-.135l-.561-1.459h-2.335c-.045.135-.112.292-.18.472s-.112.337-.157.494a2.962,2.962,0,0,0-.112.4.632.632,0,0,0-.022.18c0,.112.067.2.225.269a2.328,2.328,0,0,0,.763.157v.382h-2.739v-.382a2.239,2.239,0,0,0,.359-.045,1.025,1.025,0,0,0,.314-.112,1.435,1.435,0,0,0,.337-.292,1.723,1.723,0,0,0,.225-.4c.359-.921.718-1.864,1.1-2.784.359-.921.763-1.953,1.212-3.076h.943c.606,1.594,1.1,2.852,1.437,3.772s.651,1.684.9,2.29a1.674,1.674,0,0,0,.157.269.9.9,0,0,0,.269.225,1.3,1.3,0,0,0,.314.112,1.761,1.761,0,0,0,.314.045v.382ZM118.309,40l-.965-2.56L116.378,40Z" transform="translate(-68.599 -35.599)" fill="#231815"/>
            <path id="Path_31" data-name="Path 31" d="M129.162,40.605l-.135,2.245h-6.152v-.382a2.5,2.5,0,0,0,.382-.045,1.1,1.1,0,0,0,.292-.067.452.452,0,0,0,.247-.2.652.652,0,0,0,.067-.314V36.9a1,1,0,0,0-.045-.292.464.464,0,0,0-.247-.2,1.13,1.13,0,0,0-.359-.112q-.2-.034-.337-.067v-.382h3.66v.382a2.593,2.593,0,0,0-.359.045c-.135.022-.247.045-.359.067a.452.452,0,0,0-.247.2.717.717,0,0,0-.067.314v4.6a2.927,2.927,0,0,0,.045.516.4.4,0,0,0,.157.269.552.552,0,0,0,.337.112,4.707,4.707,0,0,0,.606.022c.247,0,.494-.022.741-.045a.786.786,0,0,0,.516-.2,3.1,3.1,0,0,0,.494-.7,9.115,9.115,0,0,0,.4-.831h.359Z" transform="translate(-68.562 -35.598)" fill="#231815"/>
            <path id="Path_32" data-name="Path 32" d="M140.969,37.574a2.126,2.126,0,0,1-.225,1.033,1.763,1.763,0,0,1-.651.7,3.374,3.374,0,0,1-.965.4,5.064,5.064,0,0,1-1.212.112h-.539V41.8a.717.717,0,0,0,.067.314.452.452,0,0,0,.247.2c.067.022.157.045.314.09.135.022.269.045.359.067v.382h-3.637v-.382a2.592,2.592,0,0,0,.359-.045,1.757,1.757,0,0,0,.314-.067.452.452,0,0,0,.247-.2.6.6,0,0,0,.067-.314V36.9a.562.562,0,0,0-.067-.292.385.385,0,0,0-.247-.2,2.315,2.315,0,0,0-.359-.112,2.916,2.916,0,0,1-.337-.067v-.382h3.7a3.419,3.419,0,0,1,1.931.427A1.482,1.482,0,0,1,140.969,37.574Zm-1.841.247a1.859,1.859,0,0,0-.314-1.168,1.352,1.352,0,0,0-1.1-.382h-.4v3.054h.2a1.715,1.715,0,0,0,1.19-.359A1.413,1.413,0,0,0,139.128,37.821Z" transform="translate(-68.514 -35.598)" fill="#231815"/>
            <path id="Path_33" data-name="Path 33" d="M148.936,42.851h-3.66v-.382c.18-.022.382-.045.606-.09s.359-.112.359-.2v-.09a.882.882,0,0,0-.045-.135l-.561-1.459H143.3c-.045.135-.112.292-.18.472s-.112.337-.157.494a2.958,2.958,0,0,0-.112.4c0,.09-.022.135-.022.18,0,.112.067.2.225.269a2.328,2.328,0,0,0,.763.157v.382h-2.739v-.382a2.238,2.238,0,0,0,.359-.045,1.025,1.025,0,0,0,.314-.112,1.436,1.436,0,0,0,.337-.292,1.723,1.723,0,0,0,.225-.4c.359-.921.718-1.864,1.1-2.784.359-.921.763-1.953,1.212-3.076h.943c.606,1.594,1.1,2.852,1.437,3.772.359.921.651,1.684.9,2.29a1.674,1.674,0,0,0,.157.269.9.9,0,0,0,.269.225,1.3,1.3,0,0,0,.314.112,1.761,1.761,0,0,0,.314.045v.382ZM145.434,40l-.965-2.56L143.5,40Z" transform="translate(-68.488 -35.599)" fill="#231815"/>
            <path id="Path_34" data-name="Path 34" d="M156.287,40.605l-.135,2.245H150v-.382a2.5,2.5,0,0,0,.382-.045,1.1,1.1,0,0,0,.292-.067.452.452,0,0,0,.247-.2.651.651,0,0,0,.067-.314V36.9a1,1,0,0,0-.045-.292.464.464,0,0,0-.247-.2,1.131,1.131,0,0,0-.359-.112q-.2-.034-.337-.067v-.382h3.66v.382a2.594,2.594,0,0,0-.359.045c-.135.022-.247.045-.359.067a.452.452,0,0,0-.247.2.718.718,0,0,0-.067.314v4.6a2.929,2.929,0,0,0,.045.516.4.4,0,0,0,.157.269.551.551,0,0,0,.337.112,4.707,4.707,0,0,0,.606.022c.247,0,.494-.022.741-.045a.786.786,0,0,0,.516-.2,4.035,4.035,0,0,0,.494-.7c.157-.314.292-.584.4-.831h.359Z" transform="translate(-68.451 -35.598)" fill="#231815"/>
            <path id="Path_35" data-name="Path 35" d="M164.656,42.851h-3.637v-.382c.18-.022.382-.045.606-.09s.359-.112.359-.2v-.09a.883.883,0,0,0-.045-.135l-.561-1.459h-2.335c-.045.135-.112.292-.18.472s-.112.337-.157.494a2.96,2.96,0,0,0-.112.4.632.632,0,0,0-.022.18c0,.112.067.2.225.269a2.328,2.328,0,0,0,.763.157v.382H156.82v-.382a2.238,2.238,0,0,0,.359-.045,1.025,1.025,0,0,0,.314-.112,1.435,1.435,0,0,0,.337-.292,1.724,1.724,0,0,0,.225-.4c.359-.921.718-1.864,1.1-2.784.359-.921.763-1.953,1.212-3.076h.943c.606,1.594,1.1,2.852,1.437,3.772.359.921.651,1.684.9,2.29a1.673,1.673,0,0,0,.157.269.9.9,0,0,0,.269.225,1.3,1.3,0,0,0,.314.112,1.761,1.761,0,0,0,.314.045v.382ZM161.154,40l-.965-2.56L159.223,40Z" transform="translate(-68.423 -35.599)" fill="#231815"/>
            <path id="Path_36" data-name="Path 36" d="M168.641,43.031a4.031,4.031,0,0,1-1.392-.247,3.106,3.106,0,0,1-1.123-.718,3.362,3.362,0,0,1-.741-1.145,4.334,4.334,0,0,1,0-3.009,3.717,3.717,0,0,1,.763-1.212,3.565,3.565,0,0,1,1.168-.786,3.89,3.89,0,0,1,1.437-.269,3.441,3.441,0,0,1,1.01.135,3.562,3.562,0,0,1,.763.314l.292-.269h.4l.045,2.56h-.427a4.152,4.152,0,0,0-.853-1.706,1.6,1.6,0,0,0-1.212-.539,1.464,1.464,0,0,0-1.347.831,4.584,4.584,0,0,0-.471,2.29,5.408,5.408,0,0,0,.157,1.437,3.118,3.118,0,0,0,.4.943,1.933,1.933,0,0,0,.651.561,1.963,1.963,0,0,0,.831.18,2.032,2.032,0,0,0,1.19-.382,3.572,3.572,0,0,0,.943-1.145l.4.269a3.836,3.836,0,0,1-.472.786,2.977,2.977,0,0,1-.606.584,3.22,3.22,0,0,1-.831.427A3.611,3.611,0,0,1,168.641,43.031Z" transform="translate(-68.389 -35.599)" fill="#231815"/>
            <path id="Path_37" data-name="Path 37" d="M179.34,37.619h-.382a2.523,2.523,0,0,0-.472-.808,1.514,1.514,0,0,0-.651-.494,1.613,1.613,0,0,0-.382-.045h-1.37v2.694h.674a1.493,1.493,0,0,0,.472-.067,1.014,1.014,0,0,0,.382-.247,1.5,1.5,0,0,0,.225-.4,3.375,3.375,0,0,0,.135-.494h.382V40.7h-.382a3.553,3.553,0,0,0-.135-.516,1.205,1.205,0,0,0-.225-.427.94.94,0,0,0-.359-.247,1.543,1.543,0,0,0-.494-.067h-.674v2.021a2.645,2.645,0,0,0,.045.494.522.522,0,0,0,.157.292.487.487,0,0,0,.314.112,3.826,3.826,0,0,0,.561.022h.4c.157,0,.292-.022.4-.022.135-.022.247-.045.382-.067a.51.51,0,0,0,.247-.135,4.056,4.056,0,0,0,.516-.741c.18-.337.314-.584.382-.741h.337l-.135,2.178h-6.264v-.382a3.076,3.076,0,0,0,.359-.045,1.76,1.76,0,0,0,.314-.067.452.452,0,0,0,.247-.2.652.652,0,0,0,.067-.314V36.9a1,1,0,0,0-.045-.292.464.464,0,0,0-.247-.2,2.937,2.937,0,0,0-.337-.112,2.153,2.153,0,0,1-.337-.067v-.382h5.928v1.774Z" transform="translate(-68.355 -35.598)" fill="#231815"/>
            <path id="Path_38" data-name="Path 38" d="M194.783,42.851h-3.615v-.382a2.866,2.866,0,0,0,.382-.045,1.374,1.374,0,0,0,.314-.067.452.452,0,0,0,.247-.2.75.75,0,0,0,.067-.337V36.564l-2.29,6.175H189.3c-.022-.112-.09-.314-.2-.651-.112-.314-.2-.584-.269-.786l-1.684-4.827V40.74a5.087,5.087,0,0,0,.067.943.947.947,0,0,0,.247.472,1.327,1.327,0,0,0,.4.2,4.182,4.182,0,0,0,.427.112v.382h-2.852v-.382a1.694,1.694,0,0,0,.382-.067,1.345,1.345,0,0,0,.449-.18.684.684,0,0,0,.247-.472,5.083,5.083,0,0,0,.067-.943v-3.48a1.7,1.7,0,0,0-.067-.516.888.888,0,0,0-.225-.337,1.052,1.052,0,0,0-.382-.2l-.4-.067v-.382h3.1l1.639,4.625,1.392-3.75a4.885,4.885,0,0,0,.135-.494,1.923,1.923,0,0,0,.067-.382h2.964V36.2a1.762,1.762,0,0,0-.314.045,1.288,1.288,0,0,0-.314.09.452.452,0,0,0-.247.2.718.718,0,0,0-.067.314v4.962a.562.562,0,0,0,.067.292.384.384,0,0,0,.247.2,1.392,1.392,0,0,0,.314.09,2.333,2.333,0,0,0,.337.045v.4Z" transform="translate(-68.306 -35.598)" fill="#231815"/>
            <path id="Path_39" data-name="Path 39" d="M204.169,36.227a1.843,1.843,0,0,0-.4.067,1.065,1.065,0,0,0-.427.18.719.719,0,0,0-.247.449,5.19,5.19,0,0,0-.067.965v2.6a2.385,2.385,0,0,1-.741,1.841,2.724,2.724,0,0,1-1.976.7,3.264,3.264,0,0,1-2.2-.674,2.374,2.374,0,0,1-.786-1.886V36.878a.562.562,0,0,0-.067-.292.608.608,0,0,0-.247-.225,2.436,2.436,0,0,0-.314-.112,1.868,1.868,0,0,0-.292-.045v-.382h3.5V36.2a1.761,1.761,0,0,0-.314.045,1.653,1.653,0,0,0-.314.09.452.452,0,0,0-.247.2.717.717,0,0,0-.067.314v3.525a2.253,2.253,0,0,0,.449,1.527,1.661,1.661,0,0,0,1.28.472,1.724,1.724,0,0,0,1.3-.516,2.243,2.243,0,0,0,.472-1.549v-2.38a3.3,3.3,0,0,0-.09-.943.788.788,0,0,0-.247-.449,1.516,1.516,0,0,0-.427-.2,4.186,4.186,0,0,0-.427-.112v-.4h2.9Z" transform="translate(-68.261 -35.598)" fill="#231815"/>
            <path id="Path_40" data-name="Path 40" d="M218.964,37.619h-.382a2.524,2.524,0,0,0-.471-.808,1.514,1.514,0,0,0-.651-.494,1.613,1.613,0,0,0-.382-.045h-1.37v2.694h.674a1.493,1.493,0,0,0,.472-.067,1.014,1.014,0,0,0,.382-.247,1.5,1.5,0,0,0,.225-.4,3.373,3.373,0,0,0,.135-.494h.382V40.7h-.382a3.551,3.551,0,0,0-.135-.516,1.2,1.2,0,0,0-.225-.427.94.94,0,0,0-.359-.247,1.543,1.543,0,0,0-.494-.067h-.674v2.021a2.647,2.647,0,0,0,.045.494.522.522,0,0,0,.157.292.487.487,0,0,0,.314.112,3.826,3.826,0,0,0,.561.022h.4c.157,0,.292-.022.4-.022.135-.022.247-.045.382-.067a.509.509,0,0,0,.247-.135,4.053,4.053,0,0,0,.516-.741c.18-.337.314-.584.382-.741h.337l-.135,2.178h-6.264v-.382a3.074,3.074,0,0,0,.359-.045,1.76,1.76,0,0,0,.314-.067.452.452,0,0,0,.247-.2.651.651,0,0,0,.067-.314V36.9a1,1,0,0,0-.045-.292.464.464,0,0,0-.247-.2,2.942,2.942,0,0,0-.337-.112,2.155,2.155,0,0,1-.337-.067v-.382h5.928v1.774Z" transform="translate(-68.193 -35.598)" fill="#231815"/>
            <path id="Path_41" data-name="Path 41" d="M228.5,36.227a1.843,1.843,0,0,0-.4.067,1.064,1.064,0,0,0-.427.18.719.719,0,0,0-.247.449,5.2,5.2,0,0,0-.067.965v2.6a2.385,2.385,0,0,1-.741,1.841,2.724,2.724,0,0,1-1.976.7,3.264,3.264,0,0,1-2.2-.674,2.374,2.374,0,0,1-.786-1.886V36.878a.562.562,0,0,0-.067-.292.608.608,0,0,0-.247-.225,2.436,2.436,0,0,0-.314-.112,1.868,1.868,0,0,0-.292-.045v-.382h3.5V36.2a1.762,1.762,0,0,0-.314.045,1.653,1.653,0,0,0-.314.09.452.452,0,0,0-.247.2.717.717,0,0,0-.067.314v3.525a2.254,2.254,0,0,0,.449,1.527,1.661,1.661,0,0,0,1.28.472,1.69,1.69,0,0,0,1.3-.516,2.243,2.243,0,0,0,.471-1.549v-2.38a3.3,3.3,0,0,0-.09-.943.943.943,0,0,0-.247-.449,1.515,1.515,0,0,0-.427-.2,4.189,4.189,0,0,0-.427-.112v-.4h2.9Z" transform="translate(-68.161 -35.598)" fill="#231815"/>
            <path id="Path_42" data-name="Path 42" d="M239.014,42.851H235.4v-.382a2.5,2.5,0,0,0,.382-.045,1.374,1.374,0,0,0,.314-.067.452.452,0,0,0,.247-.2.75.75,0,0,0,.067-.337V36.564l-2.29,6.175h-.584c-.022-.112-.09-.314-.2-.651-.112-.314-.2-.584-.269-.786l-1.684-4.827V40.74a5.079,5.079,0,0,0,.067.943.946.946,0,0,0,.247.472,1.251,1.251,0,0,0,.427.2,4.186,4.186,0,0,0,.427.112v.382h-2.9v-.382a1.7,1.7,0,0,0,.382-.067,1.345,1.345,0,0,0,.449-.18.684.684,0,0,0,.247-.472,5.084,5.084,0,0,0,.067-.943v-3.48a1.694,1.694,0,0,0-.067-.516.888.888,0,0,0-.225-.337,1.053,1.053,0,0,0-.382-.2l-.4-.067v-.382h3.1l1.639,4.625,1.392-3.75a4.9,4.9,0,0,0,.135-.494,1.929,1.929,0,0,0,.067-.382h2.964V36.2a1.762,1.762,0,0,0-.314.045,1.286,1.286,0,0,0-.314.09.452.452,0,0,0-.247.2.717.717,0,0,0-.067.314v4.962a.562.562,0,0,0,.067.292.384.384,0,0,0,.247.2,1.392,1.392,0,0,0,.314.09,2.335,2.335,0,0,0,.337.045v.4Z" transform="translate(-68.125 -35.598)" fill="#231815"/>
            <path id="Path_43" data-name="Path 43" d="M208.576,43.031a3.816,3.816,0,0,1-1.145-.157,3.724,3.724,0,0,1-.9-.382l-.314.337h-.4l-.067-2.537h.4a7.25,7.25,0,0,0,.337.763,3.383,3.383,0,0,0,.494.718,2.145,2.145,0,0,0,.651.539,1.686,1.686,0,0,0,.831.2,1.351,1.351,0,0,0,.988-.337,1.117,1.117,0,0,0,.337-.831.934.934,0,0,0-.292-.7,2.97,2.97,0,0,0-.9-.494c-.269-.09-.494-.18-.718-.247s-.427-.157-.629-.225a2.039,2.039,0,0,1-1.01-.808,2.144,2.144,0,0,1-.337-1.168,1.914,1.914,0,0,1,.18-.786,2.007,2.007,0,0,1,.494-.674,2.916,2.916,0,0,1,.786-.472,3.151,3.151,0,0,1,1.055-.18,3.111,3.111,0,0,1,1.033.157,4.228,4.228,0,0,1,.763.337l.292-.292h.4l.022,2.38h-.4a7.518,7.518,0,0,0-.337-.786,4.435,4.435,0,0,0-.4-.674,1.7,1.7,0,0,0-.539-.449,1.393,1.393,0,0,0-.7-.18,1.176,1.176,0,0,0-.831.292.939.939,0,0,0-.314.741.869.869,0,0,0,.292.7,2.247,2.247,0,0,0,.876.472c.225.09.472.157.718.247s.449.157.651.247a2.312,2.312,0,0,1,1.033.763,2.044,2.044,0,0,1,.359,1.212,1.931,1.931,0,0,1-.2.876,2.162,2.162,0,0,1-.539.718,2.731,2.731,0,0,1-.876.472A2.673,2.673,0,0,1,208.576,43.031Z" transform="translate(-68.223 -35.599)" fill="#231815"/>
          </g>
        </g>
        <g id="Group_12" data-name="Group 12" transform="translate(0 0)">
          <path id="Path_44" data-name="Path 44" d="M55.147,26.936a25.1,25.1,0,1,1-25.1-25.1A25.1,25.1,0,0,1,55.147,26.936Z" transform="translate(-4.942 -1.834)" fill="#7d0000"/>
          <g id="Group_11" data-name="Group 11" transform="translate(9.138 9.138)">
            <path id="Path_45" data-name="Path 45" d="M21.407,10.935H14.043v7.387h7.365ZM18.96,15.852H16.49v-2.47h2.447v2.47Z" transform="translate(-14.043 -10.935)" fill="#fff"/>
            <path id="Path_46" data-name="Path 46" d="M38.506,10.935v7.387h7.365V10.935Zm4.917,4.917H40.976v-2.47h2.447Z" transform="translate(-13.943 -10.935)" fill="#fff"/>
            <path id="Path_47" data-name="Path 47" d="M38.506,42.785h7.365V35.42H38.506Zm2.47-4.917h2.447v2.447H40.976Z" transform="translate(-13.943 -10.834)" fill="#fff"/>
            <path id="Path_48" data-name="Path 48" d="M14.043,42.785h7.365V35.42H14.043Zm2.447-4.917h2.447v2.447H16.49Z" transform="translate(-14.043 -10.834)" fill="#fff"/>
            <path id="Path_49" data-name="Path 49" d="M33.649,40.438H31.2V13.382h2.447V18.3h2.47V10.935H23.837V18.3h2.447V13.382h2.447V40.438H26.285V35.521H23.837v7.365H36.119V35.521h-2.47Z" transform="translate(-14.003 -10.935)" fill="#fff"/>
            <path id="Path_50" data-name="Path 50" d="M26.325,20.729H14.043v7.365h7.365V25.646H16.49v-2.47h7.387v7.387H14.043v2.447H26.325Z" transform="translate(-14.043 -10.895)" fill="#fff"/>
            <path id="Path_51" data-name="Path 51" d="M38.526,25.646v2.447h7.387V20.729h-12.3V33.011h12.3V30.563H36.079V23.176h7.365v2.47Z" transform="translate(-13.963 -10.895)" fill="#fff"/>
          </g>
        </g>
      </g>
    </g>
    <path id="Path_12392" data-name="Path 12392" d="M20.1-13.44V-23.3h3.168v9.856ZM9.6-14.176v10.24H6.848v-10.24Zm17.44.736h-.128V-23.3H29.92c.448,0,.8-.16.9-.512-1.312-1.216-3.456-2.976-3.456-2.976l-1.92,2.56H14.528c-1.312-1.152-3.072-2.528-3.072-2.528L9.5-24.288H1.056l.256.928h3.68C4.352-17.44,3.1-11.3.64-6.784l.416.32A25.79,25.79,0,0,0,3.584-9.536V.96h.544c1.7,0,2.72-.768,2.72-1.024V-3.04H9.6v2.3h.576a5.148,5.148,0,0,0,2.816-.9V-13.76a1.9,1.9,0,0,0,1.056-.544L10.88-16.768,9.28-15.1H7.264l-.544-.224A36.482,36.482,0,0,0,8.832-23.36h5.184l.032.064h2.528v9.856H13.248l.256.928h3.072C16.512-6.688,15.648-1.5,10.56,2.624l.288.288C18.944-.736,20-6.624,20.1-12.512h3.168v15.3h.672c1.856,0,2.976-.768,2.976-1.024V-12.512h3.9c.448,0,.768-.16.832-.512-1.024-1.216-2.976-3.04-2.976-3.04ZM62.912-5.824h-.32a25.271,25.271,0,0,1-1.376,3.648.692.692,0,0,1-.608.384H57.824c-.608,0-.7-.1-.7-.512v-7.68a1.727,1.727,0,0,0,1.088-.544l-3.424-2.784-1.856,2.08h-4.16c.128-1.28.192-2.56.256-3.9.736-.1,1.024-.416,1.12-.832l-5.12-.448c-.032,1.792-.032,3.52-.16,5.184H37.536l.288.928h6.944c-.544,4.864-2.528,9.088-9.856,12.64l.288.448C45.44-.384,47.9-4.96,48.64-10.3h4.64v8.736c0,2.336.448,3.1,3.36,3.1h2.24c3.84,0,5.248-.576,5.248-2.048,0-.672-.192-1.088-1.12-1.5ZM60.96-24.736l-1.888,1.984h-8.7c2.176-.576,2.72-4.48-3.872-4.544l-.224.192a5.58,5.58,0,0,1,1.92,3.84,3.21,3.21,0,0,0,1.056.512H39.1a10.648,10.648,0,0,0-.736-2.048l-.448.032a4.187,4.187,0,0,1-1.792,4,2.069,2.069,0,0,0-1.376,2.5,1.993,1.993,0,0,0,2.944.928c1.088-.64,1.92-2.24,1.6-4.48h4.768a19.406,19.406,0,0,1-9.248,8.192l.224.384a20.613,20.613,0,0,0,11.84-6.016c.96.064,1.408-.192,1.568-.544l-3.36-2.016h5.536v4.352c0,2.112.512,2.752,3.488,2.752h2.752c4.768,0,5.856-.448,5.856-1.76,0-.576-.256-.96-1.216-1.248l-.192-.1h-.288c-.256.1-.64.16-.864.224-.192,0-.576.032-.9.032-.352.032-1.184.032-1.952.032H55.04c-.768,0-.864-.128-.864-.48v-3.808h5.088a29.924,29.924,0,0,1-.672,3.3l.288.224a24.116,24.116,0,0,0,4.288-2.784,1.534,1.534,0,0,0,1.216-.416ZM91.488-10.88v9.824H84.16v-12.7h5.76v1.824h.64c1.408,0,3.008-.608,3.008-.864v-9.92c.768-.128,1.024-.416,1.056-.832l-4.7-.416v9.312H84.16v-10.88c.864-.128,1.088-.448,1.152-.928l-4.96-.48v12.288h-5.5v-8.128c.832-.128,1.12-.416,1.184-.768L71.264-24v8.96a5.708,5.708,0,0,0-.992.96l3.68,2.176,1.12-1.856h5.28v12.7H73.344v-8.7c.832-.128,1.12-.384,1.184-.736l-4.832-.48v9.568a5.816,5.816,0,0,0-1.024.928l3.744,2.208L73.568-.128h17.92V2.56h.64c1.376,0,3.008-.64,3.008-.9v-11.3c.768-.128,1.024-.416,1.056-.8Zm20.576.992a2.167,2.167,0,0,0,1.312-.64l-3.36-2.592-1.632,1.76H105.5V-15.9h6.624c.416,0,.736-.16.8-.512a15.627,15.627,0,0,0-1.184-1.44v-7.52c.768-.128,1.024-.416,1.088-.864l-4.384-.384v9.792H105.5V-24.9c.8-.1,1.056-.448,1.12-.9l-4.384-.448V-11.2c0,5.408-.288,9.888-1.856,13.76l.384.256c3.488-3.328,4.608-7.872,4.736-13.28h3.2V1.472h.576A4.189,4.189,0,0,0,112.064.32Zm13.28-5.76a34.022,34.022,0,0,1-2.592,8.384,22.705,22.705,0,0,1-3.136-8.384Zm1.664-2.816-1.856,1.92h-7.1V-23.36h11.9c.48,0,.8-.16.9-.512-1.312-1.248-3.552-3.072-3.552-3.072l-1.984,2.688H118.56l-3.9-1.44v10.912c0,6.016-.256,12.352-3.3,17.28l.384.288c5.952-4.7,6.3-11.808,6.3-17.6v-.832h.992A36.075,36.075,0,0,0,121.5-4.928,22.273,22.273,0,0,1,114.272,2.4l.288.384a22.765,22.765,0,0,0,8.16-5.344,16.788,16.788,0,0,0,4.864,5.216A4.235,4.235,0,0,1,130.912-.16l.064-.32A20.287,20.287,0,0,1,124.608-4.9a27.618,27.618,0,0,0,4.416-10.176c.736-.064,1.056-.192,1.28-.512ZM139.2-4.608a11.034,11.034,0,0,1,3.9,4.9c3.648,1.888,5.792-5.184-3.648-5.12Zm11.392-6.048V-12.9h5.216v.864q-1.056-.144-2.3-.192l-.128.416a11.038,11.038,0,0,1,2.3,1.12Zm-8.48-3.136v-2.592h4.928v2.592Zm4.928-6.08v2.592h-4.928v-2.592Zm8.768,0v2.592h-5.216v-2.592Zm0,6.08h-5.216v-2.592h5.216ZM156.384-12c1.184,0,2.88-.672,2.912-.96V-19.3a2.487,2.487,0,0,0,1.28-.672l-3.456-2.56-1.632,1.76h-4.9v-2.3h11.616c.448,0,.8-.16.9-.512-1.28-1.184-3.424-2.88-3.424-2.88l-1.888,2.5h-7.2v-1.92c.832-.128,1.12-.448,1.184-.9L147.04-27.2v3.232H134.624l.288.9H147.04v2.3h-4.7l-3.68-1.44v10.56h.48c1.44,0,2.976-.7,2.976-.992V-12.9h4.928v2.24c-4.96,0-9.024,0-11.392-.064l1.792,3.776a1.52,1.52,0,0,0,.928-.672c8.32-.9,14.144-1.6,18.432-2.272a7.723,7.723,0,0,1,1.728,1.92,1.881,1.881,0,0,0,1.088.608l-.736.992h-2.72V-7.584c.7-.128,1.024-.352,1.088-.832L152.672-8.8v2.432H134.016l.256.928h18.4V-1.6c0,.384-.16.544-.672.544-.672,0-4.224-.224-4.224-.224v.448A4.675,4.675,0,0,1,150.688.384a3.955,3.955,0,0,1,.768,2.464c4.16-.384,4.7-1.76,4.7-4.256V-5.44H163.1c.448,0,.768-.16.864-.512-.736-.672-1.7-1.5-2.4-2.08.864-1.152.16-3.232-5.472-3.968ZM194.016-1.664h-.352a12.321,12.321,0,0,1-1.824.448c-.512.064-1.28.16-1.888.192-.96.1-3.424.16-6.176.16h-7.744c-2.784,0-3.648-.448-3.648-1.888V-24h22.24c.448,0,.8-.16.9-.512-1.312-1.184-3.456-2.944-3.456-2.944l-1.92,2.56H167.52l.288.9h1.12V-2.272c0,3.648,2.3,4.192,7.488,4.192h7.072c10.784,0,12.928-.32,12.928-2.08,0-.64-.416-1.152-2.208-1.472ZM187.9-4.992V-10.4h2.752v5.408Zm3.3,2.368a5.174,5.174,0,0,0,2.656-.832v-6.56a1.9,1.9,0,0,0,1.056-.512l-3.072-2.336-1.472,1.536h-2.336l-3.232-1.28V-2.272h.448c1.28,0,2.656-.672,2.656-.96v-.832h2.752v1.44ZM177.248-4.992V-10.4H179.9v5.408Zm3.168,2.5a4.613,4.613,0,0,0,2.592-.832v-6.72a1.714,1.714,0,0,0,1.056-.512l-3.008-2.272-1.44,1.5h-2.24l-3.2-1.28V-1.76h.448c1.28,0,2.624-.7,2.624-.96V-4.064H179.9V-2.5Zm.352-13.312v-4.64h6.368v4.64Zm6.368,2.368h.64a5.934,5.934,0,0,0,2.976-.864v-5.632a2.132,2.132,0,0,0,1.152-.608l-3.424-2.592-1.632,1.76h-5.92l-3.712-1.44v9.92h.512c1.44,0,3.04-.768,3.04-1.088v-.9h6.368Z" transform="translate(332 73)" fill="#232323"/>
  </g>
</svg>
