<svg xmlns="http://www.w3.org/2000/svg" width="230.404" height="49.111" viewBox="0 0 230.404 49.111">
  <g id="logo-footer" transform="translate(-50 -2150)">
    <g id="Group_4368" data-name="Group 4368" transform="translate(38.625 2091)">
      <g id="Group_10" data-name="Group 10" transform="translate(74.087 65.635)">
        <g id="Group_8" data-name="Group 8" transform="translate(0.377)">
          <g id="Group_1" data-name="Group 1" transform="translate(0 1.467)">
            <path id="Path_2" data-name="Path 2" d="M131.723,76.539a3.718,3.718,0,0,0-.816-.846.342.342,0,0,0-.217-.091,2.459,2.459,0,0,0-1.089-.325l-.131,0-.569-.009c-.35-.007-.137.391-.137.391a3.009,3.009,0,0,0,.557.665c.044,0,.087.046.13.091a3.8,3.8,0,0,0,.51.884,2.177,2.177,0,0,0,.691.494,3.284,3.284,0,0,0,.609.185c.522.14.224-.346.317-.651A1.4,1.4,0,0,0,131.723,76.539Z" transform="translate(-119.502 -73.346)" fill="#232323"/>
            <path id="Path_3" data-name="Path 3" d="M130.448,73.364c-.3-.136-.344-.356-.561-.534s-.436-.051-.651-.274a1.661,1.661,0,0,0-.693-.406c-.131,0-.439.079-.966.158a16.285,16.285,0,0,1-2.19.137l-.394-.007a11.67,11.67,0,0,0-1.226.066c-.307.038-.571.078-.7.076a.558.558,0,0,0-.264.039q-.4.059-.92.115c-.745.118-1.58.235-1.58.235a1.412,1.412,0,0,0-.307.038,5.2,5.2,0,0,0-.7.076,10.093,10.093,0,0,0-1.844.318c-.79.205-1.975.315-2.414.439-.395.081-.444.343-.444.343s-.437-.052-.656-.055c-.262,0-.134.173-.139.435a4.831,4.831,0,0,0,.415,1.32,15.053,15.053,0,0,1,.389,2.808c.03.788.049,2.188-.015,3.325s-.07,4.025-.072,4.112a4.459,4.459,0,0,0-.1.961c.037.394.023,1.182.014,1.751a4.656,4.656,0,0,0,.142,1.84c.25.748.723,1.194.986,1.155.264-.084.275-.7.275-.7a10.216,10.216,0,0,0,1.31.155,8.818,8.818,0,0,0,1.227-.11,8.49,8.49,0,0,0,1.318-.327c.177-.041.4-.08.571-.121.307-.038.79-.117,1.316-.152a6.431,6.431,0,0,1,.92-.072c.307-.038.658-.076.965-.114.131,0,.264-.039.351-.038.175,0,.526-.035.876-.072.831-.03,1.84-.1,2.233-.092a2.537,2.537,0,0,0,1.32-.414c.221-.129.092-.3-.383-.664A1.824,1.824,0,0,0,126.411,89c-.483.079-1.185.155-1.711.233a.156.156,0,0,0-.089.042,3.638,3.638,0,0,1-.919.027,1.42,1.42,0,0,1,.184-.564c.138-.348.5-.867.862-1.692a7.16,7.16,0,0,1,.723-1.3A8.175,8.175,0,0,0,126.79,87.3a11.86,11.86,0,0,1,1.559.989.4.4,0,0,1,.211.4,3.432,3.432,0,0,0,.071.963c.037.352-.009.526-.1.612a.685.685,0,0,0-.183.434c-.047.262-.1.566.253.617.348.093.6.71.946.935.346.269.437.008.586-.953a21.869,21.869,0,0,0,.093-2.886,5.852,5.852,0,0,1,.031-1.75c.093-.3-.076-.614.016-.919.051-.349-.112-1.1-.1-1.621-.035-.526.018-1.006-.023-1.182-.039-.219.049-.3.013-.7s.232-.784.105-1.049a4.141,4.141,0,0,1-.018-1.488c.1-.435.057-.7.1-.83a1.775,1.775,0,0,0,.013-.7,5.089,5.089,0,0,1-.031-.744c0-.263.006-.307.01-.569a6.617,6.617,0,0,0-.022-1.27,4.486,4.486,0,0,1,.151-1.179s-.035-.438.143-.61C130.836,73.677,130.751,73.545,130.448,73.364Zm-6.286,11.618s-.327,1.132-.647,1.958c-.136.3-.229.521-.319.694a6.857,6.857,0,0,0-.455,1,4.087,4.087,0,0,0-.146.786l-.087.042-.088.043s-.351.037-.832.073c-.615.076-1.4.15-1.885.185a16,16,0,0,0-2.1.226c-.483.079-.656-.011-.967.246s-.444.3-.616.207c-.13-.133-.04-.219.006-.393a2.338,2.338,0,0,0,.055-.656c-.037-.351-.118-.746-.118-.746a2.953,2.953,0,0,1,.823.452,1.59,1.59,0,0,0,1.223.2c.176-.086.75-.381,1.015-.508a4.369,4.369,0,0,0,.709-.557c.268-.3.579-.559.8-.773a11.87,11.87,0,0,1,1.108-.813c.088-.042.177-.128.266-.17a2.876,2.876,0,0,0,.663-.426,2.8,2.8,0,0,1,.619-.34.654.654,0,0,0,.354-.168.7.7,0,0,0,.14-.567.239.239,0,0,0-.127-.22,1.017,1.017,0,0,0-.875-.016c-.043,0-.087,0-.088.042-.352.169-.712.731-.932.815a.044.044,0,0,1-.045.043,12.033,12.033,0,0,0-1.724,1.02c-.044,0-.089.043-.132.042a13.1,13.1,0,0,1-1.283.765,5.094,5.094,0,0,1-1.323.59,3.833,3.833,0,0,1-.921.115c-.349-.007-.346-.225-.346-.225s-.014-1.75-.047-2.32a3.1,3.1,0,0,0-.031-.789c0-.218.052-.436.054-.567a4.678,4.678,0,0,0-.067-1.183,1.225,1.225,0,0,1,.022-.5c.091-.174-.025-.235-.02-.5a2.815,2.815,0,0,0,.027-.623,4.217,4.217,0,0,1,.018-1.05,6.625,6.625,0,0,0,.057-.742s.016-.963.03-1.707a8.382,8.382,0,0,0,.118-1.748,6.962,6.962,0,0,0-.333-.969,1.1,1.1,0,0,0-.3-.4.272.272,0,0,1,.265-.214,4.046,4.046,0,0,0,1.312.11A4.88,4.88,0,0,1,118,74.635c.265-.083,1.053-.157,1.229-.2s.043.088.259.267a1.432,1.432,0,0,1,.47.62,1.645,1.645,0,0,1,.167.484,1.059,1.059,0,0,0,.211.442,3.949,3.949,0,0,1,.512.8c.082.264.08.4-.23.565-.132.041-.4.124-.7.206-.527.166-1.187.329-1.5.455a2.417,2.417,0,0,1-1.226.067c-.35-.006-.569-.054-.7-.056a3.569,3.569,0,0,1-.439.079,3.659,3.659,0,0,0,.642.842c.3.181.734.538.909.541.219-.039.176,0,.176,0a3.551,3.551,0,0,1,.669,1.762,8.3,8.3,0,0,1-.528,2.66c-.225.389-.227.477-.62.47-.438-.007-.436-.182-.612-.054s-.313.388-.278.914.3.355.428.534a1.062,1.062,0,0,0,.564.315c.175.047.3.136.835-.161.221-.171.885-.6,1.551-1.11.62-.471,1.243-.985,1.554-1.286l.355-.343c.355-.3.667-.6.933-.859.179-.216.357-.344.4-.431a1.144,1.144,0,0,0,.092-.261s.253.486.466.84a.626.626,0,0,0,.128.178,2.276,2.276,0,0,1,.548,1.233A2.072,2.072,0,0,1,124.162,84.982Zm-4.989-4.988c-.043-.089-.343-.444-.079-.484.176-.04.484-.209.794-.335a.168.168,0,0,0,.132-.042c.308-.126.526-.122.7-.206a5.108,5.108,0,0,1,.706-.338l.168.353a1.072,1.072,0,0,1,.171.266c.126.264.383.619.466.84.212.354.383.662.336.792,0,.132-.177.041-.306,0-.043-.044-.3-.092-.522-.184a3.192,3.192,0,0,1-.347-.137c-.217-.092-.392-.094-.351.037,0,.175.469.752.506,1.1-.007.349.118.746.028.919-.047.174-.442.255-.753.512-.355.256-.663.382-.754.556a1.425,1.425,0,0,1-.266.171,2.635,2.635,0,0,1-.309.126s-.177.171-.176.084a2.234,2.234,0,0,1,.455-1.042c0-.044,0-.044.044-.043.181-.259.139-.391.191-.871.1-.481.187-.7.235-.959a1,1,0,0,0-.118-.746.368.368,0,0,0-.261-.094c-.262-.047-.612-.01-.611-.1Zm9.5,7.167c-.175,0-.819-.714-1.25-1.116l-.559-.579a5.374,5.374,0,0,0-.728-.888c-.343-.4-.3-.531-.3-.531a5.375,5.375,0,0,0,.553-1.564c.1-.743.277-.827.284-1.221a.673.673,0,0,0-.208-.572,5.211,5.211,0,0,0-1.04-.587,2.423,2.423,0,0,0-.565-.229,1.232,1.232,0,0,0-.262-.047s-.087.041,0,.306a6.094,6.094,0,0,1,.2,1.316c-.01.569.066,1.183-.106,1.092a20.091,20.091,0,0,1-.932-1.81l-.126-.265a11.482,11.482,0,0,1-.507-1.059c-.17-.266-.037-.4-.164-.616s-.343-.444-.167-.528c.221-.083.439-.036.615-.121a.67.67,0,0,0,.266-.127c.265-.126.575-.339.622-.514.135-.26-.076-.7-.248-.879a.648.648,0,0,0-.7-.144c-.307.039-.435-.139-.615.121v.044a.525.525,0,0,1-.528.166s-.211-.442-.378-.882c-.084-.22-.168-.44-.209-.572a3.078,3.078,0,0,0-.507-1.016s-.259-.223.094-.348a3.743,3.743,0,0,1,.66-.208,6.793,6.793,0,0,1,.922-.2c.176-.041.308-.083.439-.124.175,0,.351-.038.526-.035.482-.079.965-.114,1.229-.2h.043c.352-.038.658-.076.834-.073a7.832,7.832,0,0,1,1.138-.024c.437.007.479.14.871.278.392.094.48.052.518.4.082.352.071.965.195,1.4a4.38,4.38,0,0,1,.155,1.1c.038.394-.015.919.018,1.489s.129,2.627.07,3.458-.043,2.45-.059,3.325c.029.876-.144.829-.112,1.4a4.156,4.156,0,0,0,.075.745C128.722,86.943,128.806,87.163,128.675,87.161Z" transform="translate(-113.771 -72.15)" fill="#232323"/>
          </g>
          <g id="Group_2" data-name="Group 2" transform="translate(22.052 3.362)">
            <path id="Path_4" data-name="Path 4" d="M157.53,81.871a4.811,4.811,0,0,0,1.411.547,2.3,2.3,0,0,0,.591-.092.639.639,0,0,0,.273-.091c.41-.091,1.229-.148,1.456-.194a4.457,4.457,0,0,0,.839-.224,1.663,1.663,0,0,1,.482-.083,6.6,6.6,0,0,0,.728-.092c.591-.091,2.321-.591,2.731-.637s.41-.046.592-.318c.136-.319.046-.592-.41-1.093-.5-.546-1-.182-1.32-.136a11.012,11.012,0,0,1-1.957.637c-.228-.046-.092-.319-.046-.637a7.248,7.248,0,0,0,.092-1.184c.045-.5.09-1.229.136-1.683.046-.41-.319-.638-.455-.593a.857.857,0,0,1-.5-.046c-.091,0-.182-.091-.409-.136a.435.435,0,0,1-.41-.228c-.182-.182-.318-.364-.591-.364a1.323,1.323,0,0,0-.729.41.915.915,0,0,1-.5.274H159.4c-.227.045-.045.227-.045.227a.814.814,0,0,1,.182.136c.182.182.547.456.683.592a2.351,2.351,0,0,1,.775,1.275c.09.455.5,1.775.5,1.775a.46.46,0,0,0,.091.227c.136.137,0,.319-.364.365a6.855,6.855,0,0,1-.865.136,6.394,6.394,0,0,0-.819.092,3.87,3.87,0,0,0-.774.181,3.826,3.826,0,0,1-1.411.137c-.364-.046-.228.272-.228.455S157.21,81.689,157.53,81.871Z" transform="translate(-152.454 -75.225)" fill="#232323"/>
            <path id="Path_5" data-name="Path 5" d="M169.114,93.674a8.655,8.655,0,0,0-1.139-1.139,1.6,1.6,0,0,0-1.366-.41,6.623,6.623,0,0,1-1.091.319c-.41.046-1.276.228-1.73.228-.41.045-1.821.228-2,.272-.137.046-.638.274-.638.137-.045-.137.136-.409.41-.728a3.577,3.577,0,0,0,.774-1.5,3.145,3.145,0,0,0,.182-2.367,1.184,1.184,0,0,0-1.138-.774,5.522,5.522,0,0,1-1.229,0c-.273,0,.091.364.091.364s.683.82.683,1.047c0,.182-.136.774-.182,1.366a9.033,9.033,0,0,1-.728,2.5c-.182.319-.136.319-.955.5a18.884,18.884,0,0,1-2.413.41,5.253,5.253,0,0,1-.774.046c-.592,0-3.05.364-3.687.455-.637.136-2.322.409-2.548.409-.182,0,0,.821.545,1.047a3.829,3.829,0,0,0,2.413.182c.774-.182,2.185-.455,4.051-.911.046,0,.046-.045.092-.045a29.679,29.679,0,0,1,4.46-.637c1.138-.091,4.142-.274,5.19-.274a4.466,4.466,0,0,1,1.776.364c.227.091.364-.091.773-.227C169.341,94.129,169.295,93.856,169.114,93.674Z" transform="translate(-149.563 -80.018)" fill="#232323"/>
            <path id="Path_6" data-name="Path 6" d="M160.475,89.337c-.045-.045-.091-.136-.137-.182-.137-.228-.182-.5-.319-.591-.182-.183-.365.136-.365.136a4.67,4.67,0,0,0-.227,1.046,9.333,9.333,0,0,0-.228,2.14,2.015,2.015,0,0,0,1.138,1.457,1.408,1.408,0,0,0,.41.182c.181,0,.728.227.728,0a1.87,1.87,0,0,0-.364-1.184,3.89,3.89,0,0,1-.548-1.775C160.565,90.11,160.7,89.61,160.475,89.337Z" transform="translate(-153.26 -80.324)" fill="#232323"/>
          </g>
          <g id="Group_3" data-name="Group 3" transform="translate(47.304 0.699)">
            <path id="Path_7" data-name="Path 7" d="M197.31,89.616c.174-.481.481-1.75.656-2.275,0-.087.044-.131.044-.175.087-.306.219-.569,0-.7,0-.043-.044-.043-.044-.087-.218-.175-.525-.569-.876-.919a.614.614,0,0,0-.918-.044c-.088.132-.131.394-.263.612a.6.6,0,0,1-.569.263,3,3,0,0,0-.569.174h-.043a2,2,0,0,1,.043-.349,3.731,3.731,0,0,1,.044-.657c.086-.612.306-3.193.306-3.193a1.176,1.176,0,0,1,.087-.437c.087-.176.656-.132,1.007-.219a3.813,3.813,0,0,0,1.313-.306c.393-.307.262-.832-.132-1.225-.349-.394-1.049-.219-1.355-.131-.264.044-.613.481-.745.481s0-.218.044-.481c.044-.306.088-1.969.219-2.8a6.563,6.563,0,0,0,.043-2.057c-.043-.306.132-.7.088-.831a3.578,3.578,0,0,0-.875-.349h-.044c-.306-.088-.262-.176-.481-.176a8.767,8.767,0,0,0-1.225-.131c-.394.044-.351.219-.351.219l.218.394a1.332,1.332,0,0,0,.439.481c.351.307.438,1.969.525,2.975.044,1.007.088,2.888.044,3.15,0,.262-1.531.7-1.969.831a2.584,2.584,0,0,1-1.093-.087c-.219,0-.263.219-.219.437s.349.175.349.175a2.284,2.284,0,0,1,.263.525,1.514,1.514,0,0,0,1.006.832c.437.044.307,0,.437-.132a1.2,1.2,0,0,1,.351-.306c.175-.131.569-.437.744-.394s.175.656.131,1.313-.263,2.757-.263,2.757l-.174.174a5.038,5.038,0,0,1-.7.482c-.132.088-.482-.175-.7-.349a10.406,10.406,0,0,0-1.443-.7.459.459,0,0,0-.044.525,13.216,13.216,0,0,1,1.007,1.355,15.118,15.118,0,0,1,.918,3.326,1.275,1.275,0,0,0,.263.744c.262.307.351,1.006.569,1.094.262.044.174-.043.174-.306a4.639,4.639,0,0,1,.131-.788,4.847,4.847,0,0,1,.569-.174,1.258,1.258,0,0,0,.526-.175,4.646,4.646,0,0,0,.481-.307,10.7,10.7,0,0,1,1.707-.306.8.8,0,0,0,.436-.263s.044-.132-.174-.351C197,90.492,197.091,90.142,197.31,89.616Zm-1.268-.394a4.994,4.994,0,0,1-.044.919s-.788.524-1.225.744a.163.163,0,0,0-.131.043,6.694,6.694,0,0,1-.918.307s0,.044-.132-.219a5.645,5.645,0,0,1-.306-1.838,4.836,4.836,0,0,0-.087-1.049s1.137-.394,1.487-.482h.087c.307-.087.657,0,.919-.131.218-.131.525-.306.612-.176S196,88.522,196.042,89.222Z" transform="translate(-190.548 -71.94)" fill="#232323"/>
            <path id="Path_8" data-name="Path 8" d="M204,80.967a2.611,2.611,0,0,0,.744-1.006s.393.176.744.35a3.211,3.211,0,0,0,1.137.394,4.332,4.332,0,0,0,.745-.088c.218-.044.436-.087.786-.131.657-.131,1.269-.306,1.925-.394.7-.131.876-.087,1.182-.394s.087-.656-.262-.962a8.642,8.642,0,0,1-.743-.569c-.306-.263-.482-.044-.656.175a3.178,3.178,0,0,1-1.05.787c-.263.088-.351.088-.612.176-.176.044-.394.087-.568.131a1.793,1.793,0,0,0-.394.087,1.8,1.8,0,0,1-.612.088c-.307,0-1.445.087-1.445.087s.044-.087.262-.569a23.672,23.672,0,0,0,1.051-2.362,18.6,18.6,0,0,0,.7-2.625,2.294,2.294,0,0,0-1.093-2.45,4.079,4.079,0,0,0-1.882-.788,2.948,2.948,0,0,0,.526,1.269,4.005,4.005,0,0,1,.568,1.357,3.617,3.617,0,0,1,0,.7c0,.262-.087.876-.219,2.1-.044.262-.307,1.4-.393,1.837s-.219.875-.351,1.444a7.789,7.789,0,0,1-.569,1.356,3.8,3.8,0,0,0-.219.569A3.258,3.258,0,0,1,204,80.967Z" transform="translate(-195.442 -70.904)" fill="#232323"/>
            <path id="Path_9" data-name="Path 9" d="M215.649,96.267a12.192,12.192,0,0,1-4.55-1.487,13.981,13.981,0,0,1-3.894-2.669,9.257,9.257,0,0,0,.568-3.194,1.25,1.25,0,0,0-.786-.875,2.084,2.084,0,0,0-.306-.131,1.351,1.351,0,0,0-1.051.087s0,.175.306.351.306.393.35,1.006a7.317,7.317,0,0,1-.131,1.706,9.819,9.819,0,0,1-1.225-1.355c-.087-.175-.218-.351-.744-.437-.526-.131-.876-.262-1.182-.131-.262.131,0,.175,0,.175s.394.35.874.787c.439.438,2.057,2.406,2.057,2.406a7.867,7.867,0,0,1-1.575,3.063,4.012,4.012,0,0,1-1.882,1.488.479.479,0,0,0-.175.088s0,.131.175.131c.044.044.088.044.175.044a6.267,6.267,0,0,0,2.1-1.137,9.665,9.665,0,0,0,1.97-2.581,1.215,1.215,0,0,1,.263.218l.436.438a39.126,39.126,0,0,0,3.02,3.018,2.909,2.909,0,0,0,2.756.438,7.83,7.83,0,0,0,2.669-1.137C216.129,96.267,215.649,96.267,215.649,96.267Z" transform="translate(-195.061 -77.409)" fill="#232323"/>
          </g>
          <g id="Group_4" data-name="Group 4" transform="translate(72.436 1.118)">
            <path id="Path_10" data-name="Path 10" d="M248.2,93.526c-.312-.276-.628-.327-.985-.6s-.669-.555-1.034-.38a.514.514,0,0,0-.236.538s-1.407.292-2.5.544a20.017,20.017,0,0,1-2,.327c-.68.033-1.267.067-1.583.062-.588-.01-.639.26-.46.355.181.047.267.275.715.464a2.576,2.576,0,0,0,1.307.295,2.236,2.236,0,0,0,.681-.124,30.189,30.189,0,0,1,3.764-.522,2.786,2.786,0,0,1-.06.858c-.1.768-.318,2.618-.318,2.618a16.969,16.969,0,0,1-1.769.286c-.317.04-1.407.247-2.359.411-.861.121-1.587.243-1.587.243a5.063,5.063,0,0,0-.128-.544c-.081-.5-.461-2.089-.63-2.771a1.887,1.887,0,0,0-1.1-1.466c-.628-.282-1.258-.475-1.346-.567-.136-.046-.142.315-.142.315a7.488,7.488,0,0,1,.794,1.144,16.093,16.093,0,0,1,1,2.6,12.106,12.106,0,0,1,.465,1.863c.079.68.877,1.6,1.062,1.375.224-.217.111-.826.106-.855a2.836,2.836,0,0,0,.725-.126,6.959,6.959,0,0,0,.77-.077c1.224-.16,3.217-.351,3.9-.384a4.317,4.317,0,0,0,1.908-.51c.32-.22-.214-.682-.214-.682s-.135-.093.1-.858a21.63,21.63,0,0,1,1.044-2.785C248.277,94.207,248.554,93.849,248.2,93.526Z" transform="translate(-233.293 -79.608)" fill="#232323"/>
            <path id="Path_11" data-name="Path 11" d="M233.1,79.179a4.391,4.391,0,0,0-1.427-1.2c-.137.134-.052.406.118,1a15.991,15.991,0,0,1,.034,3.257c.036.5-.478,1.439-.483,1.755-.051.317.7,1.144,1.018,1.285.269.1.636-.169.735-.62.053-.5.062-1.039.173-2.123a12.471,12.471,0,0,0,.182-2.71A1.142,1.142,0,0,0,233.1,79.179Z" transform="translate(-231.338 -74.038)" fill="#232323"/>
            <path id="Path_12" data-name="Path 12" d="M250.1,75.541a4.206,4.206,0,0,0-1.617-.661c-.135,0-.276.267-.458.4a10.409,10.409,0,0,1-2.357.275c-1.4.156-3.489.346-3.489.346a.14.14,0,0,1-.179-.093,4.467,4.467,0,0,1-.073-.953,1.62,1.62,0,0,1,.1-.811c.1-.36.509-.625.291-1.126s-.348-.775-.709-.827c-.046,0-.046,0-.046-.046a4.667,4.667,0,0,0-.5-.055.96.96,0,0,0-1.308-.249c-.277.312-.856-.151-.905.075a2.219,2.219,0,0,0,.12.907.982.982,0,0,0,.264.412c.178.138.676.192.806.512a9.818,9.818,0,0,1,.46,2.134c.038.453-.323.356-.733.439-.407.038-1.769.331-2.131.324-.317.04-.948-.107-1.355-.114-.361-.007-.145.495.123.726.312.232.889.921,1.252.79.41-.128.729-.259,1.774-.512,1-.3,1.59-.425,1.59-.425a.655.655,0,0,0,.13.365c.087.182.181,0,.319-.129l.046-.045c.229-.178.048-.135.276-.222a2.888,2.888,0,0,1,1-.344,16.074,16.074,0,0,1,2.261-.051c.951.016,3.214-.08,3.214-.08a5.652,5.652,0,0,1-.2,1.128,2.226,2.226,0,0,1-.881,1.3s0,.135.178.094c.182,0,.185-.178,1-.48a5.277,5.277,0,0,0,2.24-1.364.778.778,0,0,0,.28-.492l0-.136C250.9,76.189,250.5,75.82,250.1,75.541Z" transform="translate(-233.165 -71.583)" fill="#232323"/>
            <path id="Path_13" data-name="Path 13" d="M242.367,87.11a3.466,3.466,0,0,1-.815.076,1.367,1.367,0,0,1-.214-.728c0-.315-.023-1.266-.017-1.628a1,1,0,0,0-.525-1,3.6,3.6,0,0,0-2.024-.713.313.313,0,0,0-.007.407c.407.052.579.508.93,1.1a14.961,14.961,0,0,1,.671,3.088,3.8,3.8,0,0,0,.7,1.369c.135.092.229-.177.234-.449s.232-.312.776-.392a1.452,1.452,0,0,1,.272-.041c.681-.124,1.905-.328,2.177-.323.315.05.448.234.583.282s.586.054.681-.215c.05-.225.007-.406.063-.994a12.8,12.8,0,0,1,.069-1.447,12.884,12.884,0,0,1,.219-2.122c.144-.495-.256-.908-.658-1.142a2.481,2.481,0,0,0-1.72.015,7.425,7.425,0,0,1-1.32.474,7.823,7.823,0,0,0-.864.3c-.272.086-.686.441-.505.444.227-.041.628.283,1.079.382l.271,0a8.833,8.833,0,0,0,1.63-.108c.409-.084.315.141.346.956.076.816.056,1.991.056,1.991s-.863.211-1.316.293A7.1,7.1,0,0,0,242.367,87.11Z" transform="translate(-234.16 -75.616)" fill="#232323"/>
          </g>
          <g id="Group_5" data-name="Group 5" transform="translate(96.106)">
            <path id="Path_14" data-name="Path 14" d="M291.257,73.945a3.093,3.093,0,0,1,.569.526c.176.131.351.262.482.349.349.219.524-.044.524-.307a10.133,10.133,0,0,1,0-1.137.546.546,0,0,0-.437-.613c-.262-.087-.175.044-.569-.087a.043.043,0,0,1-.044-.044c-.437-.131-.787-.087-.918.088a.835.835,0,0,0,0,.481A1.311,1.311,0,0,0,291.257,73.945Z" transform="translate(-277.844 -70.839)" fill="#232323"/>
            <path id="Path_15" data-name="Path 15" d="M276.081,80.713c.132-.174-.174-.524-.481-.787a2.433,2.433,0,0,0-.394-.306c-.306-.219-.656,0-.919.176a1.177,1.177,0,0,1-.612.261,17.064,17.064,0,0,1,.131-1.793c-.044-.526-.175-1.795-.525-2.1a3.164,3.164,0,0,0-1.969-.394c-.132.175.262.525.262.525s-.088.131.351.962a12.826,12.826,0,0,1,.526,3.456s-1.489.613-2.057.919c-.568.351-.7.613-.612.787.087.132.744.087,1.444,0a6.791,6.791,0,0,0,1.225-.35,10.133,10.133,0,0,1,.043,1.619c-.043.962-.043,5.731.044,6.694a5.137,5.137,0,0,0,.569,2.1c.219.219.393-.394.481-1.225.131-.876-.044-2.144,0-3.282a27.9,27.9,0,0,0,.044-3.894,11.691,11.691,0,0,1,.131-2.45s.349-.131.962-.306c.306-.087.612-.175.876-.262C275.819,80.975,276.038,80.844,276.081,80.713Z" transform="translate(-269.757 -72.051)" fill="#232323"/>
            <path id="Path_16" data-name="Path 16" d="M290.556,82.632c-.482-.525-1.094-.262-1.662,0a14.707,14.707,0,0,1-1.839.394,2.307,2.307,0,0,1-.569.087.621.621,0,0,1-.131-.306c0-.219-.438-.525-.613-.569-.219-.087-.219-.218-.219-.218h.351c.132,0,.219.131.439.044s.524-.438.742-1.357c.043-.087.043-.175.088-.262a21.151,21.151,0,0,1,.7-3.02.85.85,0,0,0,0-1.007,2.285,2.285,0,0,0-1.181-.524s-.132-.307-.394-.176c-.174.044-.874.176-1.444.306-.524.131-1.007.219-1.007.219l-.086-1.969s-.132.043.174-.175a4.543,4.543,0,0,1,.919-.307c.132-.044.263-.044.35-.087a1.588,1.588,0,0,0,.613-.394A1.25,1.25,0,0,0,285,72.219h-.176a3,3,0,0,0-1.049.307.82.82,0,0,0,0-.394,4.154,4.154,0,0,1,0-1.05,1.045,1.045,0,0,0-.744-1.137,1.568,1.568,0,0,0-1.707.176c-.131.219.176.525.569,1.006a3.273,3.273,0,0,1,.437,1.487,2.865,2.865,0,0,1,.045.437l-.045.044a4.437,4.437,0,0,0-1.224.481,4.821,4.821,0,0,1-1.619.481c-.306.088.044.394.044.394a2.155,2.155,0,0,0,.656.393,3.106,3.106,0,0,0,1.532-.086c.261-.088.481-.132.611-.176h.088a3.978,3.978,0,0,0,.087.525c.045.481.175,1.488.175,1.488s-.13.044-.351.131a13.8,13.8,0,0,1-1.4.482c-.306.044-.044.218.131.218a9.871,9.871,0,0,1,1.051.089h.217a3.247,3.247,0,0,0,.351-.089l.176,1.488s-.044.175-.132.175a2.294,2.294,0,0,0-.394.087,2.881,2.881,0,0,1-.7.262c-.13,0-.087-.525-.087-.831a.816.816,0,0,0-.525-.787,4.754,4.754,0,0,0-1.05-.612c-.219,0-.307.525,0,1.094s.919,3.325,1.137,3.894c.175.569.219.612.35.525.132-.044.174-.262.174-.262s.089-.088.7-.088h.133c.7-.044,1.881-.087,1.881-.087a6.039,6.039,0,0,1,.35.612.968.968,0,0,1,.131.219l.176.351h-.176c-.306.043-.962.131-1.968.306a2.207,2.207,0,0,0-.526.087c-1.269.262-2.931.656-3.411.788a.342.342,0,0,1-.132.044s-.656.131-.263.481a1.2,1.2,0,0,0,.394.218,4.778,4.778,0,0,0,.831.087,4.491,4.491,0,0,0,1.269-.131c.219-.044.744-.131,1.312-.263.789-.174,1.664-.349,2.145-.437.131-.044.263-.044.349-.088.481-.087.525-.087.525-.087.174,1.444.219,5.076.219,5.076a6.551,6.551,0,0,0-.744.131,2.248,2.248,0,0,0-.569.174c-.262.132.088.7.526.963l.044.044c.35.307.35,1.312.394,1.4.087.087.569.218.612.306.065.05.108-.022.394-.481a9.337,9.337,0,0,0,.569-3.718,35.951,35.951,0,0,0-.262-3.895c0-.175.219-.219.525-.219h3.326c.569.044.787,0,1.006-.174C291.605,83.944,291.037,83.157,290.556,82.632Zm-7.57-1.094s-.306.087-.657.175a2.469,2.469,0,0,0-.656.262,5.745,5.745,0,0,0,.044-1.357,2.126,2.126,0,0,1-.044-.7,5.932,5.932,0,0,0,.656-.044,1.2,1.2,0,0,0,.569-.087c.088-.043,0,.612.045.875A3.308,3.308,0,0,1,282.986,81.538Zm1.881-.307h-.043c-.524.087-.962.132-.962.132s-.174-1.619,0-1.75c.175-.087.569-.131.962-.262a.933.933,0,0,0,.306-.131c.175-.131-.131-.306-.306-.481-.044-.045-.087-.089-.131-.089-.131-.174-.262-.13-.525-.087s-.481.176-.437.131a13.7,13.7,0,0,1,.086-1.4s.526-.175,1.007-.307a2.265,2.265,0,0,1,.481-.087.819.819,0,0,1,.612.087,5.981,5.981,0,0,0-.131,1.182c-.044.569.087,2.625-.044,2.932C285.743,81.1,285.393,81.144,284.867,81.231Z" transform="translate(-273.074 -69.769)" fill="#232323"/>
            <path id="Path_17" data-name="Path 17" d="M284.511,96.505a3.272,3.272,0,0,1-.482-.176,5.683,5.683,0,0,0-.962-.218c-.35-.044-.218.262-.218.262s.306.7.524,1.093a4.763,4.763,0,0,0,.656.788c.221.175.439.351.569.438.307.131.439-.044.526-.263a2.067,2.067,0,0,0,.044-1.05A1.069,1.069,0,0,0,284.511,96.505Z" transform="translate(-274.773 -79.88)" fill="#232323"/>
          </g>
          <g id="Group_6" data-name="Group 6" transform="translate(120.892 0.798)">
            <path id="Path_18" data-name="Path 18" d="M317.519,79.1c.224-.268,0-.49-.178-.713,0-.045-.045-.045-.045-.09a2.771,2.771,0,0,0-.937-.714c-.267-.044-.267.313-.536.491-.223.134-.089-.893-.044-1.874a26.621,26.621,0,0,0,.133-3.079,1.169,1.169,0,0,0-.758-1.16c-.535-.357-.848-.491-.983-.58-.132-.044-.847-.267-1.07-.312-.267,0,.223.892.357,1.338s.58.714.624,1.25c.089.535.135,3.124.223,4.15s-.088,1.161-.088,1.161a3.417,3.417,0,0,1-.357.133c-.268.134-1.161.714-1.161.714a2.521,2.521,0,0,1,.044-.8,2.322,2.322,0,0,1,.58-1.25,1.138,1.138,0,0,0-.445-1.16,2.586,2.586,0,0,1-.893-.58c-.312-.223-1.026-.58-1.116-.4a1.105,1.105,0,0,0,0,.4,6.806,6.806,0,0,0,.447.937,2.523,2.523,0,0,1,.312,1.786,4.558,4.558,0,0,1-.669,1.606.94.94,0,0,0,.224,1.071c.177.09.669.491,1.07.179a12.4,12.4,0,0,1,1.517-1.161,1.234,1.234,0,0,1,.58-.223c.045.223.134,2.722.134,2.722a4.847,4.847,0,0,1-.758.758c-.492.4-1.7,1.607-2.142,2.1a1.087,1.087,0,0,1-1.206.312c-.223-.134-.49,0-.357.446a2.067,2.067,0,0,0,1.339,1.116c.4,0,.715-.357,1.429-1.428a17.908,17.908,0,0,1,1.695-2.1s0,.491.046,1.2,0,2.1-.046,2.767c0,.67-.134,1.83-.134,1.83a2.519,2.519,0,0,0-.715.089c-.177.134,0,.58.224.848a12.9,12.9,0,0,1,.848,1.339c.045.179.223.134.4,0,.179-.179.179-.58.357-.893a1.487,1.487,0,0,0,.179-1.115c-.134-.313,0-.537-.045-1.562-.089-1.027-.178-6.114-.178-6.114l.267-.625-.267.045a17.51,17.51,0,0,1,.223-2.276c.089-.4.267-.224.67-.312a7.851,7.851,0,0,0,.981-.09A.441.441,0,0,0,317.519,79.1Z" transform="translate(-309.985 -71.064)" fill="#232323"/>
            <path id="Path_19" data-name="Path 19" d="M332.963,80.361a3.625,3.625,0,0,0-.714-.758,1.025,1.025,0,0,0-1.071,0c-.357.134-.4.044-.982.089-.625.09-2.633.045-3.124.135-.535.044-1.2.133-1.695.223a2.181,2.181,0,0,1-1.116-.223c.178-.269,1.383-2.588,1.651-3.259a7.975,7.975,0,0,0,.267-1.473.789.789,0,0,0-.357-.893c-.222-.178-.132-.178-.357-.267a5.871,5.871,0,0,1-.892-.4,1.464,1.464,0,0,0-1.07-.179c-.179.044.134.268.134.268a3.4,3.4,0,0,1,.445.8c.269.491-.134,1.83-.4,2.768-.224.892-1.251,3.347-1.517,4.105a8.526,8.526,0,0,1-.535,1.116c-.223.357-.357.58-.357.58s.089.089.357-.134a11.016,11.016,0,0,0,1.116-1.071,17.5,17.5,0,0,0,1.16-1.518,2.006,2.006,0,0,0,.4.491c.177.223.625.625.8.893.179.223-.357,1.741-1.293,3.659a30.436,30.436,0,0,1-1.7,3.214c-.044.089-.357.312-.044.267.356,0,.847-.713,1.249-1.294.4-.535,1.607-2.32,2.187-3.123a12.534,12.534,0,0,0,1.116-2.277c.133-.267-.313-.713-.313-.713s-.134-.09.045-.179a6.283,6.283,0,0,1,1.115-.178s0,.178.089.981a8.4,8.4,0,0,1-.937,2.99,29.515,29.515,0,0,1-1.474,2.9c-.4.579-1.025,1.785-1.2,1.963a1.135,1.135,0,0,0-.357.492s.046.044.8-.4a11.864,11.864,0,0,0,2.9-3.7c1.116-1.919,1.429-2.946,1.384-3.793-.044-.8-.982-1.384-.982-1.384a8.58,8.58,0,0,1,1.383-.089c.938,0,2.1-.089,2.1-.089s.089-.089.132.491a13.46,13.46,0,0,1-.624,3.391,18.215,18.215,0,0,1-1.25,2.811c-.267.446-.625,1.2-.982,1.2-.312,0-.535-.223-.759-.223-.267,0-.088.447.046.67.178.222.089.848.133,1.2s-.044.49.58.312c.669-.178,1.562-1.384,2.5-3.124a43.253,43.253,0,0,0,2.232-6.427C333.454,80.539,333.1,80.494,332.963,80.361Z" transform="translate(-314.318 -71.927)" fill="#232323"/>
          </g>
          <g id="Group_7" data-name="Group 7" transform="translate(145.835 1.296)">
            <path id="Path_20" data-name="Path 20" d="M366.864,83.444a1.7,1.7,0,0,1-.558.257c-.429.129-.944.257-1.029.3-.215.085-.815-.172-1.158-.086s.043.6.043.6c.214,0,.471.429.6.686.128.3.471.172.557-.086.129-.3.472-.343.816-.557.042-.044.084-.044.171-.086a6.085,6.085,0,0,1,.943-.215c.386-.086.943-.343,1.115-.214s.3-.6.172-.729a2.384,2.384,0,0,0-1.072-.3C367.207,83.015,367.079,83.314,366.864,83.444Z" transform="translate(-355.655 -76.15)" fill="#232323"/>
            <path id="Path_21" data-name="Path 21" d="M365.147,76.508a5.38,5.38,0,0,1-1.286-.043c.258.471.472.986.9,1.03a5.173,5.173,0,0,0,1.5-.472c.214-.086.472-.172.686-.258a24.816,24.816,0,0,1,3.086-.514,6.493,6.493,0,0,1-.128,1.071c-.128.644-.386.815-.3.815a3.867,3.867,0,0,0,1.715-.815c.686-.643.986-.857.9-1.286-.042-.471-.471-.343-.643-.428-.214-.043-.386-.257-.686-.472-.344-.171-.815-.386-.9-.129a1.115,1.115,0,0,1-.428.471,12.6,12.6,0,0,0-2.83.6s-.043-.814,0-1.758a5.242,5.242,0,0,1,.257-1.458c.043-.343-.3-.429-.729-.6a2.157,2.157,0,0,1-.3-.128c-.557-.258-.557-.086-.557-.086a.882.882,0,0,0-.473-.087,2.326,2.326,0,0,1-.771-.086c-.214-.043-.086.258.172.558.257.257.086.558.386.772a.908.908,0,0,1,.386.514c.084.3.513,2.487.513,2.487A.773.773,0,0,1,365.147,76.508Z" transform="translate(-355.61 -71.872)" fill="#232323"/>
            <path id="Path_22" data-name="Path 22" d="M360.032,82.081a.732.732,0,0,0,.087.3,1.327,1.327,0,0,0,.171.386,8.941,8.941,0,0,0,.858.986s.086-.043.258-.386a2.68,2.68,0,0,0,.343-.986c.043-.471.043-.985.085-1.886a1.288,1.288,0,0,0-.728-1.33,1.084,1.084,0,0,0-.644-.258s0,.129.086.815a5.687,5.687,0,0,1-.086,1.715c-.043.471-.257.6-.343.643S360.032,82.081,360.032,82.081Z" transform="translate(-354.14 -74.573)" fill="#232323"/>
            <path id="Path_23" data-name="Path 23" d="M374.993,93.733a1.777,1.777,0,0,0-.3-1.028s-.128.343-.386.9a2.817,2.817,0,0,1-2.272,1.844,17.652,17.652,0,0,1-6,.257c-.515-.173-.6-.6-.6-1.244a21.8,21.8,0,0,1,1.244-3.3c.215-.514-.129-1.158-.429-1.2a8.871,8.871,0,0,1-1.072-.385,3.482,3.482,0,0,1,.043-.429.8.8,0,0,0-.173-.644s-.085-.086.215-.214c.3-.086,1.157-.428,1.415-.514.215-.086.257.128.257.257s.386-.214.558-.386-.129-.514-.472-.772a.774.774,0,0,0-1.028.043,5.765,5.765,0,0,1-1.716.773l-.042.042c-.557.215-2.444,1.073-2.787,1.243a4.636,4.636,0,0,1-1.715-.128c-.386-.043,0,.386,0,.514a4.225,4.225,0,0,0,.428.728,1.042,1.042,0,0,0,.986.429,1.875,1.875,0,0,1,.643-.515c.471-.256,2.1-1.156,2.444-1.328h.042a3.064,3.064,0,0,1-.042.6,13.506,13.506,0,0,1-2.144,3.344,17.965,17.965,0,0,1-2.53,2.7c-.6.472-.987.729-.987.729s.086.257.514-.043a1.63,1.63,0,0,0,.473-.3c.514-.386,1.414-1.158,2.615-2.187a14.033,14.033,0,0,0,2.058-2.315c.386-.556.643-.985.643-.985s.086.171.214.471c.129.343,0,.815-.258,2.23A4.438,4.438,0,0,0,365,95.963c.428.986,4.93,1.33,6.86,1.2,1.973-.128,2.83-1.072,3-1.458A3.868,3.868,0,0,0,374.993,93.733Z" transform="translate(-353.579 -77.564)" fill="#232323"/>
            <path id="Path_24" data-name="Path 24" d="M356.1,83.335a1.1,1.1,0,0,0,.344-.515,4.6,4.6,0,0,0,0-1.543.255.255,0,0,1-.044-.172,11.935,11.935,0,0,0-1.114-3.087l-.9-1.072a22.217,22.217,0,0,0,1.887-3.044c.214-.387.042-.429-.3-.644-.3-.214-.428-.343-.685-.558-.257-.257-.815-.085-1.158.043-.343.085-.428.558-.428.558s-.043.171-.644.343c-.643.171-1.157.258-1.243.3a.781.781,0,0,0-.473.215c-.085.129,0,.428,0,.428a10.311,10.311,0,0,0,1.073.772c.214.086.171.043.514-.3s.386-.3,1.029-.6.171.343.258.471a11.485,11.485,0,0,1-.729,1.929,2.719,2.719,0,0,0-.258.772c-.084.344.3.429.3.429a3.25,3.25,0,0,0,.3-.258c.129-.172.258,0,.6.386a6.089,6.089,0,0,1,.385,2.359c.086.557-.3.471-.686.386s-1.415-.386-1.415-.386v-.472c0-.343,0-1.629-.042-2.4a1.1,1.1,0,0,0-.43-1.072,11.741,11.741,0,0,0-1.629-1.03s-.3.129-.042.728a12.225,12.225,0,0,1,.9,3.3,42.029,42.029,0,0,1,.257,6.346c0,1.414-.214,4.587-.214,5.187s.514,1.373.815,1.286.471-.514.471-1.028c.044-.473,0-1.8.044-3.474.042-1.629-.129-6.346-.129-6.346s-.042-.3.171-.343a.677.677,0,0,1,.558.171c.215.129.729.729,1.115,1.03C354.989,82.777,355.676,83.721,356.1,83.335Z" transform="translate(-350.469 -72.139)" fill="#232323"/>
          </g>
        </g>
        <g id="Group_9" data-name="Group 9" transform="translate(0 26.551)">
          <path id="Path_25" data-name="Path 25" d="M120.872,113.546c-.089.01-.213.028-.375.054a.95.95,0,0,0-.437.19.747.747,0,0,0-.246.449,4.475,4.475,0,0,0-.073.934v4.92h-.826l-4.077-5.318V118a4.231,4.231,0,0,0,.074.912.843.843,0,0,0,.24.457,1.12,1.12,0,0,0,.389.189,3.74,3.74,0,0,0,.428.111v.382h-2.8v-.382a2.709,2.709,0,0,0,.413-.07,1.1,1.1,0,0,0,.392-.173.719.719,0,0,0,.245-.424,4.82,4.82,0,0,0,.065-.952v-3.256a1.489,1.489,0,0,0-.069-.458.936.936,0,0,0-.222-.371,1.192,1.192,0,0,0-.367-.259,2.206,2.206,0,0,0-.471-.148v-.382h2.456l3.576,4.665v-2.613a4.009,4.009,0,0,0-.079-.927.872.872,0,0,0-.246-.45,1.139,1.139,0,0,0-.391-.192,4.025,4.025,0,0,0-.415-.11v-.372h2.81Z" transform="translate(-113.159 -112.982)" fill="#232323"/>
          <path id="Path_26" data-name="Path 26" d="M133.745,119.981h-3.574V119.6a4.307,4.307,0,0,0,.591-.094c.227-.05.341-.112.341-.187a.6.6,0,0,0-.008-.087.733.733,0,0,0-.036-.131l-.559-1.425h-2.275q-.077.2-.174.466c-.065.177-.119.336-.165.475a2.722,2.722,0,0,0-.1.392,1.37,1.37,0,0,0-.017.169q0,.155.228.264a2.388,2.388,0,0,0,.755.158v.382h-2.688V119.6a2.433,2.433,0,0,0,.346-.051.844.844,0,0,0,.3-.114,1.173,1.173,0,0,0,.325-.286,1.571,1.571,0,0,0,.217-.4q.532-1.363,1.071-2.729T129.512,113h.92q.906,2.335,1.417,3.693t.869,2.249a1.242,1.242,0,0,0,.155.264,1,1,0,0,0,.262.226,1.025,1.025,0,0,0,.3.116,2,2,0,0,0,.31.049Zm-3.436-2.779-.955-2.509-.946,2.509Z" transform="translate(-118.113 -112.916)" fill="#232323"/>
          <path id="Path_27" data-name="Path 27" d="M144.944,115.144h-.367a4.143,4.143,0,0,0-.455-.939q-.316-.5-.58-.54c-.1-.013-.221-.024-.364-.034s-.267-.015-.373-.015h-.212v5.376a.744.744,0,0,0,.059.307.425.425,0,0,0,.238.21,1.943,1.943,0,0,0,.331.089c.15.031.276.053.38.065v.382h-3.65v-.382l.378-.041a1.285,1.285,0,0,0,.33-.065.446.446,0,0,0,.24-.207.747.747,0,0,0,.06-.31v-5.425h-.217c-.105,0-.229,0-.373.015s-.263.021-.362.034q-.264.038-.577.54a4.4,4.4,0,0,0-.457.939h-.367v-1.97h6.338Z" transform="translate(-122.928 -112.982)" fill="#232323"/>
          <path id="Path_28" data-name="Path 28" d="M154.709,120.047h-3.62v-.382l.366-.029a1.192,1.192,0,0,0,.333-.059.438.438,0,0,0,.232-.191.638.638,0,0,0,.063-.3v-4.866a.675.675,0,0,0-.06-.29.448.448,0,0,0-.234-.2,2.1,2.1,0,0,0-.325-.1c-.143-.033-.267-.056-.373-.07v-.382h3.62v.382c-.094.009-.208.024-.345.041a1.949,1.949,0,0,0-.349.075.383.383,0,0,0-.238.2.718.718,0,0,0-.06.3v4.861a.659.659,0,0,0,.062.3.465.465,0,0,0,.237.2,1.5,1.5,0,0,0,.32.084,3.447,3.447,0,0,0,.374.051Z" transform="translate(-127.719 -112.982)" fill="#232323"/>
          <path id="Path_29" data-name="Path 29" d="M165.041,113.83a3.406,3.406,0,0,1,.771,1.123,3.737,3.737,0,0,1,.285,1.5,4.235,4.235,0,0,1-.241,1.427,3.338,3.338,0,0,1-.693,1.165,3.465,3.465,0,0,1-1.123.791,3.791,3.791,0,0,1-1.531.282,3.739,3.739,0,0,1-1.359-.246,3.339,3.339,0,0,1-1.888-1.832,3.684,3.684,0,0,1-.282-1.466,4.066,4.066,0,0,1,.274-1.526,3.507,3.507,0,0,1,.756-1.172,3.311,3.311,0,0,1,1.136-.737,3.744,3.744,0,0,1,1.392-.259,3.785,3.785,0,0,1,1.385.251A3.371,3.371,0,0,1,165.041,113.83Zm-1.188,4.909a3.7,3.7,0,0,0,.3-1,7.652,7.652,0,0,0,.093-1.258,8.194,8.194,0,0,0-.08-1.158,3.786,3.786,0,0,0-.276-1,1.866,1.866,0,0,0-.531-.706,1.268,1.268,0,0,0-.823-.267,1.378,1.378,0,0,0-1.275.829,5.121,5.121,0,0,0-.436,2.343,7.371,7.371,0,0,0,.095,1.214,3.692,3.692,0,0,0,.3,1,1.8,1.8,0,0,0,.528.669,1.276,1.276,0,0,0,.787.24,1.3,1.3,0,0,0,.792-.242A1.675,1.675,0,0,0,163.854,118.738Z" transform="translate(-130.749 -112.868)" fill="#232323"/>
          <path id="Path_30" data-name="Path 30" d="M180,113.546c-.088.01-.214.028-.375.054a.949.949,0,0,0-.437.19.75.75,0,0,0-.245.449,4.425,4.425,0,0,0-.073.934v4.92h-.826l-4.077-5.318V118a4.239,4.239,0,0,0,.073.912.847.847,0,0,0,.24.457,1.109,1.109,0,0,0,.389.189,3.709,3.709,0,0,0,.428.111v.382H172.3v-.382a2.733,2.733,0,0,0,.412-.07,1.086,1.086,0,0,0,.392-.173.72.72,0,0,0,.245-.424,4.821,4.821,0,0,0,.065-.952v-3.256a1.471,1.471,0,0,0-.07-.458.936.936,0,0,0-.222-.371,1.2,1.2,0,0,0-.367-.259,2.206,2.206,0,0,0-.471-.148v-.382h2.456l3.576,4.665v-2.613a4.008,4.008,0,0,0-.079-.927.876.876,0,0,0-.246-.45,1.145,1.145,0,0,0-.391-.192,4.029,4.029,0,0,0-.415-.11v-.372H180Z" transform="translate(-135.857 -112.982)" fill="#232323"/>
          <path id="Path_31" data-name="Path 31" d="M192.874,119.981H189.3V119.6a4.3,4.3,0,0,0,.591-.094q.341-.075.341-.187a.591.591,0,0,0-.008-.087.739.739,0,0,0-.036-.131l-.559-1.425h-2.274c-.051.132-.11.288-.174.466s-.119.336-.165.475a2.747,2.747,0,0,0-.1.392,1.333,1.333,0,0,0-.017.169q0,.155.228.264a2.379,2.379,0,0,0,.755.158v.382h-2.688V119.6a2.433,2.433,0,0,0,.346-.051.844.844,0,0,0,.3-.114,1.182,1.182,0,0,0,.325-.286,1.589,1.589,0,0,0,.218-.4q.532-1.363,1.071-2.729T188.64,113h.92q.906,2.335,1.416,3.693t.869,2.249a1.24,1.24,0,0,0,.155.264,1.011,1.011,0,0,0,.262.226,1.036,1.036,0,0,0,.3.116,1.994,1.994,0,0,0,.31.049Zm-3.436-2.779-.956-2.509-.945,2.509Z" transform="translate(-140.811 -112.916)" fill="#232323"/>
          <path id="Path_32" data-name="Path 32" d="M205.539,117.848l-.131,2.2h-6.024v-.382q.164-.014.381-.046a1.36,1.36,0,0,0,.284-.06.424.424,0,0,0,.234-.189.671.671,0,0,0,.063-.31v-4.841a.711.711,0,0,0-.051-.288.484.484,0,0,0-.246-.206,1.479,1.479,0,0,0-.343-.108c-.134-.028-.242-.047-.322-.061v-.382h3.588v.382c-.1.009-.211.024-.344.041a2.032,2.032,0,0,0-.35.075.387.387,0,0,0-.239.2.738.738,0,0,0-.06.3v4.514a2.287,2.287,0,0,0,.044.5.447.447,0,0,0,.16.27.682.682,0,0,0,.336.119,5.072,5.072,0,0,0,.593.026,5.433,5.433,0,0,0,.716-.046.838.838,0,0,0,.5-.2,3.335,3.335,0,0,0,.484-.692,6.775,6.775,0,0,0,.392-.818Z" transform="translate(-146.259 -112.982)" fill="#232323"/>
          <path id="Path_33" data-name="Path 33" d="M224.381,114.892a2.062,2.062,0,0,1-.228,1,1.862,1.862,0,0,1-.63.68,2.916,2.916,0,0,1-.951.392,5.409,5.409,0,0,1-1.2.121h-.538v1.932a.67.67,0,0,0,.063.3.455.455,0,0,0,.24.206,1.937,1.937,0,0,0,.3.082,3.328,3.328,0,0,0,.356.058v.382h-3.559v-.382c.091-.009.21-.023.357-.041a1.2,1.2,0,0,0,.309-.065.456.456,0,0,0,.238-.189.678.678,0,0,0,.059-.31v-4.841a.707.707,0,0,0-.055-.293.441.441,0,0,0-.241-.206,1.682,1.682,0,0,0-.343-.1c-.144-.031-.251-.052-.323-.061v-.382h3.615a3.422,3.422,0,0,1,1.9.423A1.454,1.454,0,0,1,224.381,114.892Zm-1.787.238a1.806,1.806,0,0,0-.3-1.14,1.306,1.306,0,0,0-1.071-.373h-.386v2.993h.195a1.675,1.675,0,0,0,1.165-.362A1.445,1.445,0,0,0,222.594,115.13Z" transform="translate(-153.497 -112.982)" fill="#232323"/>
          <path id="Path_34" data-name="Path 34" d="M236.127,119.981h-3.574V119.6a4.307,4.307,0,0,0,.591-.094c.227-.05.341-.112.341-.187a.591.591,0,0,0-.008-.087.742.742,0,0,0-.036-.131l-.558-1.425h-2.275q-.077.2-.174.466c-.064.177-.12.336-.165.475a2.77,2.77,0,0,0-.1.392,1.579,1.579,0,0,0-.016.169c0,.1.076.192.229.264a2.371,2.371,0,0,0,.755.158v.382h-2.689V119.6a2.428,2.428,0,0,0,.347-.051.831.831,0,0,0,.3-.114,1.156,1.156,0,0,0,.325-.286,1.536,1.536,0,0,0,.218-.4q.532-1.363,1.07-2.729T231.894,113h.92q.9,2.335,1.416,3.693t.869,2.249a1.193,1.193,0,0,0,.155.264.978.978,0,0,0,.563.341,1.977,1.977,0,0,0,.309.049Zm-3.436-2.779-.955-2.509-.946,2.509Z" transform="translate(-157.415 -112.916)" fill="#232323"/>
          <path id="Path_35" data-name="Path 35" d="M248.793,117.848l-.131,2.2h-6.024v-.382c.11-.009.237-.025.381-.046a1.38,1.38,0,0,0,.285-.06.427.427,0,0,0,.233-.189.663.663,0,0,0,.063-.31v-4.841a.711.711,0,0,0-.051-.288.479.479,0,0,0-.245-.206,1.514,1.514,0,0,0-.343-.108c-.134-.028-.242-.047-.323-.061v-.382h3.589v.382c-.1.009-.211.024-.344.041a2.024,2.024,0,0,0-.349.075.385.385,0,0,0-.239.2.728.728,0,0,0-.059.3v4.514a2.256,2.256,0,0,0,.043.5.453.453,0,0,0,.16.27.68.68,0,0,0,.336.119,5.092,5.092,0,0,0,.593.026,5.437,5.437,0,0,0,.715-.046.839.839,0,0,0,.5-.2,3.381,3.381,0,0,0,.484-.692,7.064,7.064,0,0,0,.392-.818Z" transform="translate(-162.863 -112.982)" fill="#232323"/>
          <path id="Path_36" data-name="Path 36" d="M261.205,119.981h-3.574V119.6a4.33,4.33,0,0,0,.591-.094q.341-.075.341-.187a.585.585,0,0,0-.007-.087.875.875,0,0,0-.036-.131l-.559-1.425h-2.274c-.052.132-.11.288-.174.466s-.12.336-.164.475a2.776,2.776,0,0,0-.1.392,1.333,1.333,0,0,0-.017.169q0,.155.228.264a2.388,2.388,0,0,0,.755.158v.382h-2.688V119.6a2.42,2.42,0,0,0,.346-.051.844.844,0,0,0,.3-.114,1.164,1.164,0,0,0,.325-.286,1.553,1.553,0,0,0,.217-.4q.533-1.363,1.071-2.729T256.971,113h.921q.906,2.335,1.417,3.693t.869,2.249a1.216,1.216,0,0,0,.155.264.979.979,0,0,0,.562.341,1.979,1.979,0,0,0,.311.049Zm-3.437-2.779-.955-2.509-.946,2.509Z" transform="translate(-167.041 -112.916)" fill="#232323"/>
          <path id="Path_37" data-name="Path 37" d="M270.229,120.116a3.688,3.688,0,0,1-1.352-.245,3.14,3.14,0,0,1-1.1-.709,3.252,3.252,0,0,1-.721-1.126,4.242,4.242,0,0,1,0-2.954,3.561,3.561,0,0,1,.749-1.179,3.266,3.266,0,0,1,1.132-.758,3.72,3.72,0,0,1,1.415-.269,3.429,3.429,0,0,1,1,.137,3.836,3.836,0,0,1,.755.312l.287-.267h.4l.046,2.505h-.413a4.431,4.431,0,0,0-.829-1.68,1.541,1.541,0,0,0-1.184-.535,1.44,1.44,0,0,0-1.322.8,4.6,4.6,0,0,0-.453,2.249,5.45,5.45,0,0,0,.155,1.4,2.952,2.952,0,0,0,.4.933,1.676,1.676,0,0,0,.636.54,1.868,1.868,0,0,0,.805.172,1.9,1.9,0,0,0,1.156-.372,3.447,3.447,0,0,0,.922-1.126l.4.253a4.29,4.29,0,0,1-.454.766,2.814,2.814,0,0,1-.586.581,3.071,3.071,0,0,1-.808.419A3.233,3.233,0,0,1,270.229,120.116Z" transform="translate(-172.136 -112.868)" fill="#232323"/>
          <path id="Path_38" data-name="Path 38" d="M285.8,114.931h-.366a2.633,2.633,0,0,0-.46-.792,1.232,1.232,0,0,0-.648-.473,1.907,1.907,0,0,0-.38-.041c-.164,0-.3-.008-.4-.008H282.6v2.643h.665a1.571,1.571,0,0,0,.46-.063.856.856,0,0,0,.373-.243,1.2,1.2,0,0,0,.211-.394,2.651,2.651,0,0,0,.139-.492h.367v2.872h-.367a2.7,2.7,0,0,0-.139-.51,1.421,1.421,0,0,0-.211-.423.8.8,0,0,0-.356-.24,1.572,1.572,0,0,0-.476-.065H282.6v1.981a2.21,2.21,0,0,0,.043.492.484.484,0,0,0,.165.278.644.644,0,0,0,.317.121,3.931,3.931,0,0,0,.545.03c.11,0,.24,0,.389,0a3.438,3.438,0,0,0,.394-.03,2.449,2.449,0,0,0,.363-.072.525.525,0,0,0,.251-.14,3.928,3.928,0,0,0,.5-.721,5.339,5.339,0,0,0,.363-.728h.336l-.126,2.139H280v-.382c.088-.007.205-.019.353-.039a1.359,1.359,0,0,0,.313-.067.446.446,0,0,0,.238-.2.686.686,0,0,0,.059-.3v-4.841a.711.711,0,0,0-.051-.288.479.479,0,0,0-.246-.206,1.547,1.547,0,0,0-.335-.106c-.146-.032-.256-.054-.331-.063v-.382h5.8Z" transform="translate(-177.205 -112.982)" fill="#232323"/>
          <path id="Path_39" data-name="Path 39" d="M308.3,120.047H304.76v-.382c.1-.009.23-.026.383-.049a1.262,1.262,0,0,0,.311-.072.487.487,0,0,0,.241-.2.634.634,0,0,0,.073-.319V113.9l-2.245,6.044h-.58c-.028-.106-.1-.317-.205-.635s-.2-.57-.264-.761l-1.654-4.726V118a4.283,4.283,0,0,0,.073.912.859.859,0,0,0,.239.458,1.175,1.175,0,0,0,.406.193,2.611,2.611,0,0,0,.412.106v.382h-2.8v-.382c.078-.009.2-.031.376-.065a1.057,1.057,0,0,0,.429-.176.711.711,0,0,0,.247-.457,5.086,5.086,0,0,0,.063-.917v-3.4a1.558,1.558,0,0,0-.073-.515.722.722,0,0,0-.223-.326.931.931,0,0,0-.38-.194,2.642,2.642,0,0,0-.393-.058v-.382h3.022l1.6,4.523,1.365-3.675a4.151,4.151,0,0,0,.136-.482,3.038,3.038,0,0,0,.068-.366H308.3v.382a2.952,2.952,0,0,0-.31.039,2.279,2.279,0,0,0-.309.077.378.378,0,0,0-.239.2.744.744,0,0,0-.059.3v4.861a.669.669,0,0,0,.057.293.486.486,0,0,0,.237.206,1.33,1.33,0,0,0,.3.082c.139.026.246.044.32.053Z" transform="translate(-184.559 -112.982)" fill="#232323"/>
          <path id="Path_40" data-name="Path 40" d="M324.23,113.566c-.088.01-.217.031-.385.065a1.049,1.049,0,0,0-.424.176.689.689,0,0,0-.248.434,4.442,4.442,0,0,0-.073.941v2.55a2.368,2.368,0,0,1-.73,1.81,2.7,2.7,0,0,1-1.932.686,3.208,3.208,0,0,1-2.162-.661,2.309,2.309,0,0,1-.765-1.845v-3.506a.615.615,0,0,0-.064-.29.576.576,0,0,0-.238-.217,1.254,1.254,0,0,0-.3-.1c-.117-.025-.213-.044-.287-.053v-.382h3.421v.382a2.875,2.875,0,0,0-.3.037,2,2,0,0,0-.307.079.36.36,0,0,0-.238.193.761.761,0,0,0-.058.3v3.458a2.134,2.134,0,0,0,.431,1.484,1.866,1.866,0,0,0,2.516-.049,2.19,2.19,0,0,0,.46-1.506v-2.323a3.8,3.8,0,0,0-.083-.925.832.832,0,0,0-.246-.442,1.14,1.14,0,0,0-.418-.193,3.9,3.9,0,0,0-.413-.106v-.392h2.841Z" transform="translate(-191.264 -112.982)" fill="#232323"/>
          <path id="Path_41" data-name="Path 41" d="M348.955,114.931h-.367a2.631,2.631,0,0,0-.46-.792,1.239,1.239,0,0,0-.648-.473,1.907,1.907,0,0,0-.38-.041c-.165,0-.3-.008-.4-.008h-.948v2.643h.665a1.576,1.576,0,0,0,.46-.063.863.863,0,0,0,.373-.243,1.206,1.206,0,0,0,.211-.394,2.607,2.607,0,0,0,.139-.492h.367v2.872H347.6a2.652,2.652,0,0,0-.139-.51,1.38,1.38,0,0,0-.211-.423.793.793,0,0,0-.357-.24,1.571,1.571,0,0,0-.476-.065h-.665v1.981a2.163,2.163,0,0,0,.044.492.48.48,0,0,0,.165.278.643.643,0,0,0,.317.121,3.931,3.931,0,0,0,.545.03q.165,0,.389,0a3.458,3.458,0,0,0,.395-.03,2.44,2.44,0,0,0,.363-.072.527.527,0,0,0,.252-.14,3.871,3.871,0,0,0,.5-.721,5.194,5.194,0,0,0,.363-.728h.336l-.126,2.139h-6.136v-.382c.088-.007.2-.019.352-.039a1.39,1.39,0,0,0,.314-.067.447.447,0,0,0,.238-.2.7.7,0,0,0,.058-.3v-4.841a.71.71,0,0,0-.051-.288.48.48,0,0,0-.245-.206,1.56,1.56,0,0,0-.336-.106c-.146-.032-.256-.054-.33-.063v-.382h5.8Z" transform="translate(-201.447 -112.982)" fill="#232323"/>
          <path id="Path_42" data-name="Path 42" d="M363.031,113.566c-.087.01-.216.031-.385.065a1.05,1.05,0,0,0-.423.176.689.689,0,0,0-.249.434,4.528,4.528,0,0,0-.073.941v2.55a2.366,2.366,0,0,1-.73,1.81,2.7,2.7,0,0,1-1.932.686,3.2,3.2,0,0,1-2.162-.661,2.306,2.306,0,0,1-.766-1.845v-3.506a.622.622,0,0,0-.063-.29.574.574,0,0,0-.239-.217,1.244,1.244,0,0,0-.3-.1c-.116-.025-.212-.044-.287-.053v-.382h3.421v.382a2.918,2.918,0,0,0-.3.037,1.973,1.973,0,0,0-.307.079.36.36,0,0,0-.238.193.761.761,0,0,0-.059.3v3.458a2.137,2.137,0,0,0,.431,1.484,1.865,1.865,0,0,0,2.515-.049,2.183,2.183,0,0,0,.461-1.506v-2.323a3.8,3.8,0,0,0-.083-.925.841.841,0,0,0-.246-.442,1.149,1.149,0,0,0-.419-.193,3.939,3.939,0,0,0-.413-.106v-.392h2.84Z" transform="translate(-206.159 -112.982)" fill="#232323"/>
          <path id="Path_43" data-name="Path 43" d="M378.83,120.047h-3.543v-.382c.1-.009.23-.026.383-.049a1.249,1.249,0,0,0,.311-.072.488.488,0,0,0,.242-.2.628.628,0,0,0,.072-.319V113.9l-2.243,6.044h-.582q-.044-.159-.2-.635t-.264-.761l-1.654-4.726V118a4.291,4.291,0,0,0,.073.912.856.856,0,0,0,.24.458,1.156,1.156,0,0,0,.407.193,2.618,2.618,0,0,0,.41.106v.382h-2.795v-.382q.117-.014.376-.065a1.049,1.049,0,0,0,.429-.176.716.716,0,0,0,.247-.457,5.087,5.087,0,0,0,.063-.917v-3.4a1.558,1.558,0,0,0-.073-.515.713.713,0,0,0-.223-.326.931.931,0,0,0-.379-.194,2.645,2.645,0,0,0-.394-.058v-.382h3.023l1.6,4.523,1.365-3.675a4.263,4.263,0,0,0,.137-.482,3.1,3.1,0,0,0,.067-.366h2.911v.382a2.994,2.994,0,0,0-.31.039,2.3,2.3,0,0,0-.31.077.38.38,0,0,0-.238.2.744.744,0,0,0-.059.3v4.861a.661.661,0,0,0,.058.293.487.487,0,0,0,.237.206,1.332,1.332,0,0,0,.3.082c.14.026.246.044.321.053Z" transform="translate(-211.632 -112.982)" fill="#232323"/>
          <path id="Path_44" data-name="Path 44" d="M334.306,120.112a3.765,3.765,0,0,1-1.117-.16,3.963,3.963,0,0,1-.878-.371l-.318.339h-.388l-.064-2.484h.4a6.513,6.513,0,0,0,.341.746,3.624,3.624,0,0,0,.479.7,2.475,2.475,0,0,0,.627.527,1.578,1.578,0,0,0,.811.2,1.326,1.326,0,0,0,.959-.322,1.074,1.074,0,0,0,.334-.81.9.9,0,0,0-.283-.676,2.312,2.312,0,0,0-.876-.473l-.71-.242q-.325-.113-.61-.228a2.036,2.036,0,0,1-.978-.79,2.125,2.125,0,0,1-.32-1.147,1.867,1.867,0,0,1,.166-.773,2.041,2.041,0,0,1,.484-.666,2.363,2.363,0,0,1,.779-.45,2.974,2.974,0,0,1,1.033-.174,3.159,3.159,0,0,1,1.019.161,4.231,4.231,0,0,1,.747.321l.282-.29h.4l.033,2.337h-.4q-.139-.377-.325-.772a3.383,3.383,0,0,0-.394-.656,1.808,1.808,0,0,0-.52-.448,1.378,1.378,0,0,0-.691-.167,1.143,1.143,0,0,0-.813.3.967.967,0,0,0-.315.733.89.89,0,0,0,.275.673,2.345,2.345,0,0,0,.855.461c.227.08.46.161.7.242s.447.158.632.233a2.271,2.271,0,0,1,1.016.749,1.96,1.96,0,0,1,.347,1.185,2.059,2.059,0,0,1-.732,1.556,2.684,2.684,0,0,1-.852.471A3.527,3.527,0,0,1,334.306,120.112Z" transform="translate(-196.991 -112.863)" fill="#232323"/>
        </g>
      </g>
      <g id="Group_12" data-name="Group 12" transform="translate(11.375 59)">
        <path id="Path_45" data-name="Path 45" d="M60.484,83.556A24.554,24.554,0,1,1,35.929,59,24.556,24.556,0,0,1,60.484,83.556Z" transform="translate(-11.375 -59)" fill="#a33"/>
        <g id="Group_11" data-name="Group 11" transform="translate(8.922 8.921)">
          <path id="Path_46" data-name="Path 46" d="M33.069,73.48H25.856V80.7h7.213Zm-2.4,4.809H28.259v-2.4h2.405Z" transform="translate(-25.856 -73.48)" fill="#fff"/>
          <path id="Path_47" data-name="Path 47" d="M64.893,73.48V80.7h7.212V73.48ZM69.7,78.289H67.3v-2.4h2.4Z" transform="translate(-40.841 -73.48)" fill="#fff"/>
          <path id="Path_48" data-name="Path 48" d="M64.893,119.735h7.212v-7.217H64.893Zm2.4-4.808h2.4v2.4H67.3Z" transform="translate(-40.841 -88.466)" fill="#fff"/>
          <path id="Path_49" data-name="Path 49" d="M25.856,119.735h7.213v-7.217H25.856Zm2.4-4.808h2.405v2.4H28.259Z" transform="translate(-25.856 -88.466)" fill="#fff"/>
          <path id="Path_50" data-name="Path 50" d="M51.085,102.344h-2.4V75.889h2.4V80.7h2.407V73.48H41.469V80.7h2.406V75.889h2.4v26.455h-2.4V97.532H41.469v7.217H53.492V97.532H51.085Z" transform="translate(-31.85 -73.48)" fill="#fff"/>
          <path id="Path_51" data-name="Path 51" d="M37.881,89.1H25.856V96.31h7.213v-2.4H28.261v-2.4h7.215v7.214H25.856v2.405H37.881Z" transform="translate(-25.856 -79.475)" fill="#fff"/>
          <path id="Path_52" data-name="Path 52" d="M61.888,93.906v2.4H69.1V89.1H57.076v12.027H69.1V98.719H59.483V91.505H66.7v2.4Z" transform="translate(-37.841 -79.475)" fill="#fff"/>
        </g>
      </g>
    </g>
  </g>
</svg>
